<?xml version="1.0" encoding="UTF-8"?>
<svg xmlns="http://www.w3.org/2000/svg" xmlns:xlink="http://www.w3.org/1999/xlink" width="353.888" height="100.894" viewBox="0 0 353.888 100.894">
<defs>
<g>
<g id="glyph-0-0">
<path d="M 6.796875 -5.84375 C 6.328125 -5.765625 6.15625 -5.421875 6.15625 -5.140625 C 6.15625 -4.796875 6.4375 -4.6875 6.640625 -4.6875 C 7.0625 -4.6875 7.359375 -5.0625 7.359375 -5.4375 C 7.359375 -6.046875 6.671875 -6.3125 6.078125 -6.3125 C 5.203125 -6.3125 4.71875 -5.453125 4.578125 -5.1875 C 4.25 -6.265625 3.359375 -6.3125 3.109375 -6.3125 C 1.640625 -6.3125 0.875 -4.4375 0.875 -4.125 C 0.875 -4.0625 0.9375 -4 1.03125 -4 C 1.140625 -4 1.171875 -4.078125 1.203125 -4.140625 C 1.6875 -5.734375 2.65625 -6.03125 3.0625 -6.03125 C 3.71875 -6.03125 3.84375 -5.4375 3.84375 -5.09375 C 3.84375 -4.765625 3.75 -4.4375 3.578125 -3.75 L 3.09375 -1.796875 C 2.875 -0.9375 2.46875 -0.140625 1.703125 -0.140625 C 1.640625 -0.140625 1.28125 -0.140625 0.96875 -0.328125 C 1.484375 -0.4375 1.609375 -0.859375 1.609375 -1.03125 C 1.609375 -1.3125 1.390625 -1.484375 1.125 -1.484375 C 0.78125 -1.484375 0.40625 -1.1875 0.40625 -0.734375 C 0.40625 -0.125 1.078125 0.140625 1.6875 0.140625 C 2.375 0.140625 2.859375 -0.40625 3.171875 -0.984375 C 3.390625 -0.140625 4.109375 0.140625 4.640625 0.140625 C 6.109375 0.140625 6.875 -1.734375 6.875 -2.046875 C 6.875 -2.125 6.8125 -2.171875 6.734375 -2.171875 C 6.609375 -2.171875 6.59375 -2.109375 6.546875 -1.984375 C 6.15625 -0.734375 5.328125 -0.140625 4.6875 -0.140625 C 4.1875 -0.140625 3.90625 -0.515625 3.90625 -1.109375 C 3.90625 -1.421875 3.96875 -1.640625 4.203125 -2.59375 L 4.703125 -4.546875 C 4.921875 -5.40625 5.40625 -6.03125 6.0625 -6.03125 C 6.09375 -6.03125 6.484375 -6.03125 6.796875 -5.84375 Z M 6.796875 -5.84375 "/>
</g>
<g id="glyph-1-0">
<path d="M 2.828125 -6.21875 C 2.828125 -6.421875 2.6875 -6.578125 2.453125 -6.578125 C 2.1875 -6.578125 1.921875 -6.3125 1.921875 -6.046875 C 1.921875 -5.859375 2.0625 -5.6875 2.296875 -5.6875 C 2.53125 -5.6875 2.828125 -5.921875 2.828125 -6.21875 Z M 2.0625 -2.484375 C 2.1875 -2.765625 2.1875 -2.78125 2.296875 -3.0625 C 2.375 -3.25 2.421875 -3.390625 2.421875 -3.578125 C 2.421875 -4.03125 2.09375 -4.40625 1.609375 -4.40625 C 0.671875 -4.40625 0.28125 -2.953125 0.28125 -2.859375 C 0.28125 -2.765625 0.390625 -2.765625 0.40625 -2.765625 C 0.5 -2.765625 0.515625 -2.78125 0.5625 -2.953125 C 0.84375 -3.875 1.234375 -4.1875 1.578125 -4.1875 C 1.65625 -4.1875 1.828125 -4.1875 1.828125 -3.859375 C 1.828125 -3.65625 1.75 -3.4375 1.71875 -3.34375 C 1.625 -3.078125 1.1875 -1.9375 1.03125 -1.5 C 0.921875 -1.25 0.796875 -0.921875 0.796875 -0.703125 C 0.796875 -0.234375 1.140625 0.109375 1.609375 0.109375 C 2.546875 0.109375 2.921875 -1.328125 2.921875 -1.421875 C 2.921875 -1.515625 2.828125 -1.515625 2.796875 -1.515625 C 2.703125 -1.515625 2.703125 -1.5 2.640625 -1.34375 C 2.46875 -0.71875 2.140625 -0.109375 1.625 -0.109375 C 1.46875 -0.109375 1.390625 -0.203125 1.390625 -0.4375 C 1.390625 -0.6875 1.453125 -0.828125 1.6875 -1.4375 Z M 2.0625 -2.484375 "/>
</g>
<g id="glyph-1-1">
<path d="M 3.953125 -6.21875 C 3.953125 -6.40625 3.8125 -6.578125 3.578125 -6.578125 C 3.34375 -6.578125 3.046875 -6.34375 3.046875 -6.046875 C 3.046875 -5.859375 3.1875 -5.6875 3.40625 -5.6875 C 3.6875 -5.6875 3.953125 -5.953125 3.953125 -6.21875 Z M 1.953125 0.5 C 1.765625 1.25 1.28125 1.828125 0.734375 1.828125 C 0.671875 1.828125 0.515625 1.828125 0.34375 1.734375 C 0.640625 1.65625 0.78125 1.40625 0.78125 1.203125 C 0.78125 1.046875 0.671875 0.859375 0.40625 0.859375 C 0.15625 0.859375 -0.125 1.0625 -0.125 1.421875 C -0.125 1.828125 0.265625 2.046875 0.75 2.046875 C 1.4375 2.046875 2.375 1.515625 2.625 0.53125 L 3.53125 -3.109375 C 3.578125 -3.3125 3.578125 -3.453125 3.578125 -3.484375 C 3.578125 -4.046875 3.171875 -4.40625 2.671875 -4.40625 C 1.65625 -4.40625 1.078125 -2.953125 1.078125 -2.859375 C 1.078125 -2.765625 1.1875 -2.765625 1.203125 -2.765625 C 1.296875 -2.765625 1.296875 -2.78125 1.390625 -2.96875 C 1.625 -3.578125 2.09375 -4.1875 2.640625 -4.1875 C 2.78125 -4.1875 2.953125 -4.140625 2.953125 -3.71875 C 2.953125 -3.5 2.921875 -3.390625 2.890625 -3.21875 Z M 1.953125 0.5 "/>
</g>
<g id="glyph-1-2">
<path d="M 2.625 -4.34375 C 1.390625 -4.046875 0.421875 -2.75 0.421875 -1.546875 C 0.421875 -0.59375 1.0625 0.125 1.984375 0.125 C 3.15625 0.125 3.984375 -1.4375 3.984375 -2.8125 C 3.984375 -3.71875 3.578125 -4.21875 3.25 -4.671875 C 2.890625 -5.109375 2.296875 -5.859375 2.296875 -6.296875 C 2.296875 -6.515625 2.5 -6.765625 2.84375 -6.765625 C 3.140625 -6.765625 3.34375 -6.625 3.546875 -6.484375 C 3.75 -6.375 3.953125 -6.234375 4.09375 -6.234375 C 4.34375 -6.234375 4.5 -6.484375 4.5 -6.640625 C 4.5 -6.859375 4.34375 -6.890625 3.984375 -6.96875 C 3.46875 -7.078125 3.328125 -7.078125 3.171875 -7.078125 C 2.390625 -7.078125 2.03125 -6.65625 2.03125 -6.046875 C 2.03125 -5.515625 2.3125 -4.953125 2.625 -4.34375 Z M 2.75 -4.125 C 3 -3.671875 3.296875 -3.140625 3.296875 -2.421875 C 3.296875 -1.765625 2.921875 -0.09375 1.984375 -0.09375 C 1.4375 -0.09375 1.03125 -0.515625 1.03125 -1.28125 C 1.03125 -1.90625 1.40625 -3.765625 2.75 -4.125 Z M 2.75 -4.125 "/>
</g>
<g id="glyph-1-3">
<path d="M 3.71875 -3.765625 C 3.53125 -4.125 3.25 -4.40625 2.796875 -4.40625 C 1.625 -4.40625 0.390625 -2.9375 0.390625 -1.484375 C 0.390625 -0.546875 0.953125 0.109375 1.71875 0.109375 C 1.921875 0.109375 2.421875 0.0625 3.015625 -0.640625 C 3.09375 -0.21875 3.4375 0.109375 3.921875 0.109375 C 4.265625 0.109375 4.5 -0.125 4.65625 -0.4375 C 4.828125 -0.796875 4.953125 -1.40625 4.953125 -1.421875 C 4.953125 -1.515625 4.859375 -1.515625 4.84375 -1.515625 C 4.734375 -1.515625 4.734375 -1.484375 4.703125 -1.34375 C 4.53125 -0.703125 4.34375 -0.109375 3.9375 -0.109375 C 3.671875 -0.109375 3.640625 -0.375 3.640625 -0.5625 C 3.640625 -0.78125 3.65625 -0.859375 3.765625 -1.296875 C 3.875 -1.71875 3.90625 -1.828125 3.984375 -2.203125 L 4.34375 -3.59375 C 4.421875 -3.875 4.421875 -3.890625 4.421875 -3.9375 C 4.421875 -4.09375 4.296875 -4.203125 4.125 -4.203125 C 3.890625 -4.203125 3.75 -3.984375 3.71875 -3.765625 Z M 3.0625 -1.1875 C 3.015625 -1 3.015625 -0.984375 2.859375 -0.8125 C 2.421875 -0.265625 2.015625 -0.109375 1.734375 -0.109375 C 1.25 -0.109375 1.109375 -0.65625 1.109375 -1.046875 C 1.109375 -1.546875 1.421875 -2.765625 1.65625 -3.21875 C 1.953125 -3.8125 2.40625 -4.1875 2.8125 -4.1875 C 3.453125 -4.1875 3.59375 -3.359375 3.59375 -3.296875 C 3.59375 -3.25 3.578125 -3.1875 3.5625 -3.140625 Z M 3.0625 -1.1875 "/>
</g>
<g id="glyph-1-4">
<path d="M 3.890625 -3.71875 C 3.609375 -3.71875 3.40625 -3.5 3.40625 -3.28125 C 3.40625 -3.140625 3.5 -2.984375 3.71875 -2.984375 C 3.9375 -2.984375 4.1875 -3.15625 4.1875 -3.546875 C 4.1875 -3.984375 3.75 -4.40625 3 -4.40625 C 1.6875 -4.40625 1.3125 -3.390625 1.3125 -2.953125 C 1.3125 -2.171875 2.046875 -2.015625 2.34375 -1.953125 C 2.859375 -1.859375 3.375 -1.75 3.375 -1.203125 C 3.375 -0.953125 3.140625 -0.109375 1.953125 -0.109375 C 1.8125 -0.109375 1.046875 -0.109375 0.8125 -0.640625 C 1.1875 -0.59375 1.4375 -0.890625 1.4375 -1.171875 C 1.4375 -1.390625 1.28125 -1.515625 1.078125 -1.515625 C 0.8125 -1.515625 0.515625 -1.296875 0.515625 -0.859375 C 0.515625 -0.28125 1.078125 0.109375 1.9375 0.109375 C 3.546875 0.109375 3.9375 -1.09375 3.9375 -1.546875 C 3.9375 -1.90625 3.75 -2.15625 3.640625 -2.265625 C 3.359375 -2.546875 3.078125 -2.59375 2.640625 -2.6875 C 2.28125 -2.765625 1.875 -2.84375 1.875 -3.28125 C 1.875 -3.578125 2.125 -4.1875 3 -4.1875 C 3.25 -4.1875 3.75 -4.109375 3.890625 -3.71875 Z M 3.890625 -3.71875 "/>
</g>
<g id="glyph-2-0">
<path d="M 1.25 -0.765625 C 1.4375 -0.984375 1.921875 -1.4375 2.3125 -1.75 C 2.96875 -2.3125 3.171875 -2.515625 3.296875 -2.640625 C 4.03125 -3.34375 4.265625 -3.8125 4.265625 -3.859375 C 4.265625 -3.875 4.265625 -3.953125 4.15625 -3.953125 C 4.078125 -3.953125 4.0625 -3.9375 4.015625 -3.859375 C 3.890625 -3.6875 3.65625 -3.296875 3.34375 -3.296875 C 3.171875 -3.296875 3.046875 -3.390625 2.84375 -3.625 C 2.625 -3.859375 2.46875 -3.953125 2.234375 -3.953125 C 1.546875 -3.953125 1.125 -3.140625 1.125 -2.90625 C 1.125 -2.890625 1.140625 -2.8125 1.234375 -2.8125 C 1.328125 -2.8125 1.359375 -2.859375 1.359375 -2.890625 C 1.53125 -3.328125 2.0625 -3.328125 2.125 -3.328125 C 2.34375 -3.328125 2.546875 -3.265625 2.75 -3.1875 C 3.109375 -3.078125 3.265625 -3.078125 3.390625 -3.078125 C 3.109375 -2.75 2.609375 -2.328125 2.046875 -1.84375 C 1.609375 -1.453125 1.328125 -1.1875 1.125 -1 C 0.796875 -0.640625 0.390625 -0.09375 0.390625 0 C 0.390625 0.0625 0.4375 0.09375 0.515625 0.09375 C 0.59375 0.09375 0.609375 0.0625 0.65625 0.015625 C 1 -0.53125 1.328125 -0.5625 1.4375 -0.5625 C 1.65625 -0.5625 1.78125 -0.4375 1.984375 -0.203125 C 2.1875 0.03125 2.375 0.09375 2.5625 0.09375 C 3.484375 0.09375 4.015625 -1.046875 4.015625 -1.296875 C 4.015625 -1.375 3.953125 -1.390625 3.890625 -1.390625 C 3.8125 -1.390625 3.78125 -1.328125 3.765625 -1.296875 C 3.53125 -0.640625 2.890625 -0.53125 2.65625 -0.53125 C 2.484375 -0.53125 2.3125 -0.578125 2.046875 -0.671875 C 1.859375 -0.71875 1.640625 -0.78125 1.453125 -0.78125 C 1.375 -0.78125 1.28125 -0.765625 1.25 -0.765625 Z M 1.25 -0.765625 "/>
</g>
<g id="glyph-3-0">
<path d="M 6.34375 -2.96875 C 6.46875 -2.96875 6.640625 -2.96875 6.640625 -3.15625 C 6.640625 -3.34375 6.4375 -3.34375 6.296875 -3.34375 L 0.84375 -3.34375 C 0.703125 -3.34375 0.515625 -3.34375 0.515625 -3.15625 C 0.515625 -2.96875 0.6875 -2.96875 0.8125 -2.96875 Z M 6.296875 -1.140625 C 6.4375 -1.140625 6.640625 -1.140625 6.640625 -1.328125 C 6.640625 -1.515625 6.46875 -1.515625 6.34375 -1.515625 L 0.8125 -1.515625 C 0.6875 -1.515625 0.515625 -1.515625 0.515625 -1.328125 C 0.515625 -1.140625 0.703125 -1.140625 0.84375 -1.140625 Z M 6.296875 -1.140625 "/>
</g>
<g id="glyph-3-1">
<path d="M 2.71875 -5.71875 C 2.71875 -5.9375 2.71875 -5.96875 2.484375 -5.96875 C 1.9375 -5.390625 1.109375 -5.390625 0.828125 -5.390625 L 0.828125 -5.109375 C 1 -5.109375 1.546875 -5.109375 2.03125 -5.34375 L 2.03125 -0.71875 C 2.03125 -0.390625 2 -0.28125 1.171875 -0.28125 L 0.890625 -0.28125 L 0.890625 0 C 1.203125 -0.03125 2 -0.03125 2.375 -0.03125 C 2.734375 -0.03125 3.546875 -0.03125 3.875 0 L 3.875 -0.28125 L 3.578125 -0.28125 C 2.75 -0.28125 2.71875 -0.390625 2.71875 -0.71875 Z M 2.71875 -5.71875 "/>
</g>
<g id="glyph-3-2">
<path d="M 4.234375 -2.859375 C 4.234375 -3.46875 4.203125 -4.234375 3.890625 -4.90625 C 3.5 -5.75 2.8125 -5.96875 2.296875 -5.96875 C 1.765625 -5.96875 1.078125 -5.75 0.6875 -4.890625 C 0.40625 -4.265625 0.359375 -3.546875 0.359375 -2.859375 C 0.359375 -2.28125 0.375 -1.421875 0.765625 -0.703125 C 1.1875 0.046875 1.875 0.203125 2.296875 0.203125 C 2.875 0.203125 3.53125 -0.046875 3.90625 -0.875 C 4.1875 -1.484375 4.234375 -2.15625 4.234375 -2.859375 Z M 2.296875 -0.03125 C 2.03125 -0.03125 1.390625 -0.15625 1.21875 -1.15625 C 1.125 -1.6875 1.125 -2.46875 1.125 -2.96875 C 1.125 -3.578125 1.125 -4.28125 1.234375 -4.78125 C 1.421875 -5.578125 1.984375 -5.734375 2.296875 -5.734375 C 2.625 -5.734375 3.203125 -5.5625 3.359375 -4.734375 C 3.46875 -4.234375 3.46875 -3.53125 3.46875 -2.96875 C 3.46875 -2.421875 3.46875 -1.671875 3.375 -1.140625 C 3.1875 -0.109375 2.53125 -0.03125 2.296875 -0.03125 Z M 2.296875 -0.03125 "/>
</g>
<g id="glyph-4-0">
<path d="M 6.046875 -2.046875 C 6.203125 -2.046875 6.375 -2.046875 6.375 -2.25 C 6.375 -2.4375 6.203125 -2.4375 6.046875 -2.4375 L 1.09375 -2.4375 C 0.953125 -2.4375 0.765625 -2.4375 0.765625 -2.25 C 0.765625 -2.046875 0.9375 -2.046875 1.09375 -2.046875 Z M 6.046875 -2.046875 "/>
</g>
<g id="glyph-5-0">
<path d="M 3.515625 -1.265625 L 3.28125 -1.265625 C 3.265625 -1.109375 3.1875 -0.703125 3.09375 -0.640625 C 3.046875 -0.59375 2.515625 -0.59375 2.40625 -0.59375 L 1.125 -0.59375 C 1.859375 -1.234375 2.109375 -1.4375 2.515625 -1.765625 C 3.03125 -2.171875 3.515625 -2.609375 3.515625 -3.265625 C 3.515625 -4.109375 2.78125 -4.625 1.890625 -4.625 C 1.03125 -4.625 0.4375 -4.015625 0.4375 -3.375 C 0.4375 -3.03125 0.734375 -2.984375 0.8125 -2.984375 C 0.96875 -2.984375 1.171875 -3.109375 1.171875 -3.359375 C 1.171875 -3.484375 1.125 -3.734375 0.765625 -3.734375 C 0.984375 -4.21875 1.453125 -4.375 1.78125 -4.375 C 2.484375 -4.375 2.84375 -3.828125 2.84375 -3.265625 C 2.84375 -2.65625 2.40625 -2.1875 2.1875 -1.9375 L 0.515625 -0.265625 C 0.4375 -0.203125 0.4375 -0.1875 0.4375 0 L 3.3125 0 Z M 3.515625 -1.265625 "/>
</g>
<g id="glyph-5-1">
<path d="M 2.328125 -4.4375 C 2.328125 -4.625 2.328125 -4.625 2.125 -4.625 C 1.671875 -4.1875 1.046875 -4.1875 0.765625 -4.1875 L 0.765625 -3.9375 C 0.921875 -3.9375 1.390625 -3.9375 1.765625 -4.125 L 1.765625 -0.578125 C 1.765625 -0.34375 1.765625 -0.25 1.078125 -0.25 L 0.8125 -0.25 L 0.8125 0 C 0.9375 0 1.796875 -0.03125 2.046875 -0.03125 C 2.265625 -0.03125 3.140625 0 3.296875 0 L 3.296875 -0.25 L 3.03125 -0.25 C 2.328125 -0.25 2.328125 -0.34375 2.328125 -0.578125 Z M 2.328125 -4.4375 "/>
</g>
</g>
<clipPath id="clip-0">
<path clip-rule="nonzero" d="M 0.128906 29 L 8 29 L 8 37 L 0.128906 37 Z M 0.128906 29 "/>
</clipPath>
<clipPath id="clip-1">
<path clip-rule="nonzero" d="M 231 0 L 233 0 L 233 100.789062 L 231 100.789062 Z M 231 0 "/>
</clipPath>
<clipPath id="clip-2">
<path clip-rule="nonzero" d="M 187 67 L 221 67 L 221 100.789062 L 187 100.789062 Z M 187 67 "/>
</clipPath>
</defs>
<g clip-path="url(#clip-0)">
<g fill="rgb(0%, 0%, 0%)" fill-opacity="1">
<use xlink:href="#glyph-0-0" x="0.129762" y="36.253911"/>
</g>
</g>
<g fill="rgb(0%, 0%, 0%)" fill-opacity="1">
<use xlink:href="#glyph-1-0" x="8.103385" y="38.403653"/>
</g>
<g fill="rgb(0%, 0%, 0%)" fill-opacity="1">
<use xlink:href="#glyph-0-0" x="108.016416" y="36.256908"/>
</g>
<g fill="rgb(0%, 0%, 0%)" fill-opacity="1">
<use xlink:href="#glyph-1-1" x="115.990039" y="38.40665"/>
</g>
<path fill="none" stroke-width="0.4" stroke-linecap="butt" stroke-linejoin="round" stroke="rgb(0%, 0%, 0%)" stroke-opacity="1" stroke-miterlimit="10" d="M 80.001772 787.999555 L 80.001772 744.000253 L 128.001366 744.000253 L 128.001366 787.999555 Z M 80.001772 787.999555 " transform="matrix(0.99895, 0, 0, -0.99895, -43.824059, 803.449889)"/>
<path fill="none" stroke-width="0.4" stroke-linecap="butt" stroke-linejoin="round" stroke="rgb(0%, 0%, 0%)" stroke-opacity="1" stroke-miterlimit="10" d="M 64.000603 767.998095 L 80.001772 767.998095 " transform="matrix(0.99895, 0, 0, -0.99895, -43.824059, 803.449889)"/>
<path fill-rule="evenodd" fill="rgb(0%, 0%, 0%)" fill-opacity="1" stroke-width="0.4" stroke-linecap="butt" stroke-linejoin="round" stroke="rgb(0%, 0%, 0%)" stroke-opacity="1" stroke-miterlimit="10" d="M 80.001772 767.998095 L 72.998328 770.332576 L 72.998328 765.667524 Z M 80.001772 767.998095 " transform="matrix(0.99895, 0, 0, -0.99895, -43.824059, 803.449889)"/>
<path fill="none" stroke-width="0.4" stroke-linecap="butt" stroke-linejoin="round" stroke="rgb(0%, 0%, 0%)" stroke-opacity="1" stroke-miterlimit="10" d="M 128.001366 767.998095 L 143.998624 767.998095 " transform="matrix(0.99895, 0, 0, -0.99895, -43.824059, 803.449889)"/>
<path fill-rule="evenodd" fill="rgb(0%, 0%, 0%)" fill-opacity="1" stroke-width="0.4" stroke-linecap="butt" stroke-linejoin="round" stroke="rgb(0%, 0%, 0%)" stroke-opacity="1" stroke-miterlimit="10" d="M 143.998624 767.998095 L 136.999091 770.332576 L 136.999091 765.667524 Z M 143.998624 767.998095 " transform="matrix(0.99895, 0, 0, -0.99895, -43.824059, 803.449889)"/>
<path fill="none" stroke-width="0.4" stroke-linecap="butt" stroke-linejoin="round" stroke="rgb(0%, 0%, 0%)" stroke-opacity="1" stroke-miterlimit="10" d="M 195.756069 756.001129 L 396.087411 756.001129 " transform="matrix(0.99895, 0, 0, -0.99895, -43.824059, 803.449889)"/>
<path fill-rule="evenodd" fill="rgb(0%, 0%, 0%)" fill-opacity="1" stroke-width="0.4" stroke-linecap="butt" stroke-linejoin="round" stroke="rgb(0%, 0%, 0%)" stroke-opacity="1" stroke-miterlimit="10" d="M 396.087411 756.001129 L 389.087878 758.3317 L 389.087878 753.670558 Z M 396.087411 756.001129 " transform="matrix(0.99895, 0, 0, -0.99895, -43.824059, 803.449889)"/>
<g clip-path="url(#clip-1)">
<path fill="none" stroke-width="0.4" stroke-linecap="butt" stroke-linejoin="round" stroke="rgb(0%, 0%, 0%)" stroke-opacity="1" stroke-miterlimit="10" d="M 276.000442 703.997332 L 276.000442 803.996813 " transform="matrix(0.99895, 0, 0, -0.99895, -43.824059, 803.449889)"/>
</g>
<path fill-rule="evenodd" fill="rgb(0%, 0%, 0%)" fill-opacity="1" stroke-width="0.4" stroke-linecap="butt" stroke-linejoin="round" stroke="rgb(0%, 0%, 0%)" stroke-opacity="1" stroke-miterlimit="10" d="M 276.000442 803.996813 L 273.669871 796.99728 L 278.331013 796.99728 Z M 276.000442 803.996813 " transform="matrix(0.99895, 0, 0, -0.99895, -43.824059, 803.449889)"/>
<path fill-rule="evenodd" fill="rgb(0%, 0%, 0%)" fill-opacity="1" d="M 221.695312 48.242188 C 221.695312 47.25 220.890625 46.445312 219.898438 46.445312 C 218.90625 46.445312 218.101562 47.25 218.101562 48.242188 C 218.101562 49.234375 218.90625 50.042969 219.898438 50.042969 C 220.890625 50.042969 221.695312 49.234375 221.695312 48.242188 "/>
<path fill-rule="evenodd" fill="rgb(0%, 0%, 0%)" fill-opacity="1" d="M 261.65625 48.242188 C 261.65625 47.25 260.851562 46.445312 259.855469 46.445312 C 258.863281 46.445312 258.058594 47.25 258.058594 48.242188 C 258.058594 49.234375 258.863281 50.042969 259.855469 50.042969 C 260.851562 50.042969 261.65625 49.234375 261.65625 48.242188 "/>
<path fill="none" stroke-width="1.2" stroke-linecap="butt" stroke-linejoin="round" stroke="rgb(0%, 0%, 0%)" stroke-opacity="1" stroke-miterlimit="10" d="M 359.998755 800.000431 L 303.998576 771.998387 " transform="matrix(0.99895, 0, 0, -0.99895, -43.824059, 803.449889)"/>
<path fill="none" stroke-width="1.2" stroke-linecap="butt" stroke-linejoin="round" stroke="rgb(0%, 0%, 0%)" stroke-opacity="1" stroke-miterlimit="10" d="M 264.335856 756.247481 L 305.14431 755.989398 " transform="matrix(0.99895, 0, 0, -0.99895, -43.824059, 803.449889)"/>
<g fill="rgb(0%, 0%, 0%)" fill-opacity="1">
<use xlink:href="#glyph-0-0" x="341.745858" y="62.162691"/>
</g>
<g fill="rgb(0%, 0%, 0%)" fill-opacity="1">
<use xlink:href="#glyph-1-0" x="349.719481" y="64.312433"/>
</g>
<g fill="rgb(0%, 0%, 0%)" fill-opacity="1">
<use xlink:href="#glyph-0-0" x="212.444703" y="8.343235"/>
</g>
<g fill="rgb(0%, 0%, 0%)" fill-opacity="1">
<use xlink:href="#glyph-1-1" x="220.418326" y="10.492976"/>
</g>
<g fill="rgb(0%, 0%, 0%)" fill-opacity="1">
<use xlink:href="#glyph-2-0" x="175.45956" y="84.205533"/>
</g>
<g fill="rgb(0%, 0%, 0%)" fill-opacity="1">
<use xlink:href="#glyph-3-0" x="182.684968" y="84.205533"/>
</g>
<g fill="rgb(0%, 0%, 0%)" fill-opacity="1">
<use xlink:href="#glyph-4-0" x="192.402759" y="84.205533"/>
</g>
<g fill="rgb(0%, 0%, 0%)" fill-opacity="1">
<use xlink:href="#glyph-3-1" x="199.562237" y="84.205533"/>
</g>
<g fill="rgb(0%, 0%, 0%)" fill-opacity="1">
<use xlink:href="#glyph-2-0" x="259.856891" y="20.272701"/>
</g>
<g fill="rgb(0%, 0%, 0%)" fill-opacity="1">
<use xlink:href="#glyph-3-0" x="267.0823" y="20.272701"/>
</g>
<g fill="rgb(0%, 0%, 0%)" fill-opacity="1">
<use xlink:href="#glyph-3-1" x="276.79526" y="20.272701"/>
</g>
<g fill="rgb(0%, 0%, 0%)" fill-opacity="1">
<use xlink:href="#glyph-2-0" x="241.819841" y="86.147493"/>
</g>
<g fill="rgb(0%, 0%, 0%)" fill-opacity="1">
<use xlink:href="#glyph-3-0" x="249.04525" y="86.147493"/>
</g>
<g fill="rgb(0%, 0%, 0%)" fill-opacity="1">
<use xlink:href="#glyph-3-2" x="258.75821" y="86.147493"/>
</g>
<g clip-path="url(#clip-2)">
<path fill="none" stroke-width="1.2" stroke-linecap="butt" stroke-linejoin="round" stroke="rgb(0%, 0%, 0%)" stroke-opacity="1" stroke-miterlimit="10" d="M 263.999566 735.999669 L 232.00114 704.001242 " transform="matrix(0.99895, 0, 0, -0.99895, -43.824059, 803.449889)"/>
</g>
<g fill="rgb(0%, 0%, 0%)" fill-opacity="1">
<use xlink:href="#glyph-1-2" x="259.856891" y="60.226725"/>
</g>
<g fill="rgb(0%, 0%, 0%)" fill-opacity="1">
<use xlink:href="#glyph-5-0" x="264.280244" y="61.719157"/>
</g>
<g fill="rgb(0%, 0%, 0%)" fill-opacity="1">
<use xlink:href="#glyph-1-3" x="291.823307" y="4.285498"/>
</g>
<g fill="rgb(0%, 0%, 0%)" fill-opacity="1">
<use xlink:href="#glyph-5-0" x="297.08378" y="5.77793"/>
</g>
<g fill="rgb(0%, 0%, 0%)" fill-opacity="1">
<use xlink:href="#glyph-1-3" x="211.907267" y="92.193141"/>
</g>
<g fill="rgb(0%, 0%, 0%)" fill-opacity="1">
<use xlink:href="#glyph-5-1" x="217.167741" y="93.685573"/>
</g>
<path fill="none" stroke-width="1.2" stroke-linecap="butt" stroke-linejoin="round" stroke="rgb(0%, 0%, 0%)" stroke-opacity="1" stroke-miterlimit="10" d="M 303.998576 756.001129 L 303.998576 771.998387 " transform="matrix(0.99895, 0, 0, -0.99895, -43.824059, 803.449889)"/>
<path fill-rule="evenodd" fill="rgb(0%, 0%, 0%)" fill-opacity="1" d="M 261.65625 32.261719 C 261.65625 31.265625 260.851562 30.460938 259.855469 30.460938 C 258.863281 30.460938 258.058594 31.265625 258.058594 32.261719 C 258.058594 33.253906 258.863281 34.058594 259.855469 34.058594 C 260.851562 34.058594 261.65625 33.253906 261.65625 32.261719 "/>
<path fill-rule="evenodd" fill="rgb(0%, 0%, 0%)" fill-opacity="1" d="M 221.695312 68.222656 C 221.695312 67.230469 220.890625 66.425781 219.898438 66.425781 C 218.90625 66.425781 218.101562 67.230469 218.101562 68.222656 C 218.101562 69.214844 218.90625 70.019531 219.898438 70.019531 C 220.890625 70.019531 221.695312 69.214844 221.695312 68.222656 "/>
<path fill="none" stroke-width="0.4" stroke-linecap="butt" stroke-linejoin="round" stroke="rgb(0%, 0%, 0%)" stroke-opacity="1" stroke-miterlimit="10" d="M 296.001902 723.998792 L 292.00161 752.000837 " transform="matrix(0.99895, 0, 0, -0.99895, -43.824059, 803.449889)"/>
<path fill-rule="evenodd" fill="rgb(100%, 100%, 100%)" fill-opacity="1" stroke-width="0.4" stroke-linecap="butt" stroke-linejoin="round" stroke="rgb(0%, 0%, 0%)" stroke-opacity="1" stroke-miterlimit="10" d="M 292.00161 752.000837 L 291.059215 746.815707 L 294.355643 747.28495 Z M 292.00161 752.000837 " transform="matrix(0.99895, 0, 0, -0.99895, -43.824059, 803.449889)"/>
<path fill="none" stroke-width="0.4" stroke-linecap="butt" stroke-linejoin="round" stroke="rgb(0%, 0%, 0%)" stroke-opacity="1" stroke-dasharray="1 3" stroke-miterlimit="10" d="M 303.998576 771.998387 L 276.000442 771.998387 " transform="matrix(0.99895, 0, 0, -0.99895, -43.824059, 803.449889)"/>
<path fill="none" stroke-width="1.2" stroke-linecap="butt" stroke-linejoin="round" stroke="rgb(0%, 0%, 0%)" stroke-opacity="1" stroke-miterlimit="10" d="M 263.999566 735.999669 L 263.999566 756.001129 " transform="matrix(0.99895, 0, 0, -0.99895, -43.824059, 803.449889)"/>
<g fill="rgb(0%, 0%, 0%)" fill-opacity="1">
<use xlink:href="#glyph-1-4" x="219.898871" y="32.256111"/>
</g>
<g fill="rgb(0%, 0%, 0%)" fill-opacity="1">
<use xlink:href="#glyph-5-0" x="224.56397" y="33.748544"/>
</g>
<g fill="rgb(0%, 0%, 0%)" fill-opacity="1">
<use xlink:href="#glyph-1-2" x="211.907267" y="44.243517"/>
</g>
<g fill="rgb(0%, 0%, 0%)" fill-opacity="1">
<use xlink:href="#glyph-5-1" x="216.33062" y="45.735949"/>
</g>
<path fill="none" stroke-width="0.4" stroke-linecap="butt" stroke-linejoin="round" stroke="rgb(0%, 0%, 0%)" stroke-opacity="1" stroke-dasharray="1 3" stroke-miterlimit="10" d="M 263.999566 735.999669 L 276.000442 735.999669 " transform="matrix(0.99895, 0, 0, -0.99895, -43.824059, 803.449889)"/>
<g fill="rgb(0%, 0%, 0%)" fill-opacity="1">
<use xlink:href="#glyph-1-4" x="235.882079" y="68.218329"/>
</g>
<g fill="rgb(0%, 0%, 0%)" fill-opacity="1">
<use xlink:href="#glyph-5-1" x="240.547178" y="69.710761"/>
</g>
<path fill="none" stroke-width="0.4" stroke-linecap="butt" stroke-linejoin="round" stroke="rgb(0%, 0%, 0%)" stroke-opacity="1" stroke-miterlimit="10" d="M 336.000913 787.999555 L 336.000913 796.000139 L 351.998171 796.000139 " transform="matrix(0.99895, 0, 0, -0.99895, -43.824059, 803.449889)"/>
<path fill="none" stroke-width="0.4" stroke-linecap="butt" stroke-linejoin="round" stroke="rgb(0%, 0%, 0%)" stroke-opacity="1" stroke-miterlimit="10" d="M 251.99869 723.998792 L 251.99869 712.001826 L 240.001724 712.001826 " transform="matrix(0.99895, 0, 0, -0.99895, -43.824059, 803.449889)"/>
<path fill="none" stroke-width="0.4" stroke-linecap="butt" stroke-linejoin="round" stroke="rgb(0%, 0%, 0%)" stroke-opacity="1" stroke-miterlimit="10" d="M 83.998153 769.519222 L 125.737271 769.519222 " transform="matrix(0.99895, 0, 0, -0.99895, -43.824059, 803.449889)"/>
<path fill-rule="evenodd" fill="rgb(0%, 0%, 0%)" fill-opacity="1" stroke-width="0.4" stroke-linecap="butt" stroke-linejoin="round" stroke="rgb(0%, 0%, 0%)" stroke-opacity="1" stroke-miterlimit="10" d="M 125.737271 769.519222 L 118.737738 771.849793 L 118.737738 767.188652 Z M 125.737271 769.519222 " transform="matrix(0.99895, 0, 0, -0.99895, -43.824059, 803.449889)"/>
<path fill="none" stroke-width="0.4" stroke-linecap="butt" stroke-linejoin="round" stroke="rgb(0%, 0%, 0%)" stroke-opacity="1" stroke-miterlimit="10" d="M 99.6513 748.000545 L 99.999322 783.999263 " transform="matrix(0.99895, 0, 0, -0.99895, -43.824059, 803.449889)"/>
<path fill-rule="evenodd" fill="rgb(0%, 0%, 0%)" fill-opacity="1" stroke-width="0.4" stroke-linecap="butt" stroke-linejoin="round" stroke="rgb(0%, 0%, 0%)" stroke-opacity="1" stroke-miterlimit="10" d="M 99.999322 783.999263 L 97.602275 777.023192 L 102.263417 776.976267 Z M 99.999322 783.999263 " transform="matrix(0.99895, 0, 0, -0.99895, -43.824059, 803.449889)"/>
<path fill="none" stroke-width="1.2" stroke-linecap="butt" stroke-linejoin="round" stroke="rgb(0%, 0%, 0%)" stroke-opacity="1" stroke-miterlimit="10" d="M 124.001074 781.696065 L 111.824232 776.049514 " transform="matrix(0.99895, 0, 0, -0.99895, -43.824059, 803.449889)"/>
<path fill="none" stroke-width="1.2" stroke-linecap="butt" stroke-linejoin="round" stroke="rgb(0%, 0%, 0%)" stroke-opacity="1" stroke-miterlimit="10" d="M 94.325398 769.816409 L 112.070584 769.695188 " transform="matrix(0.99895, 0, 0, -0.99895, -43.824059, 803.449889)"/>
<path fill="none" stroke-width="1.2" stroke-linecap="butt" stroke-linejoin="round" stroke="rgb(0%, 0%, 0%)" stroke-opacity="1" stroke-miterlimit="10" d="M 94.716434 761.276196 L 86.023717 751.867885 " transform="matrix(0.99895, 0, 0, -0.99895, -43.824059, 803.449889)"/>
<path fill="none" stroke-width="1.2" stroke-linecap="butt" stroke-linejoin="round" stroke="rgb(0%, 0%, 0%)" stroke-opacity="1" stroke-miterlimit="10" d="M 112.109688 769.085173 L 112.109688 776.616515 " transform="matrix(0.99895, 0, 0, -0.99895, -43.824059, 803.449889)"/>
<path fill="none" stroke-width="1.2" stroke-linecap="butt" stroke-linejoin="round" stroke="rgb(0%, 0%, 0%)" stroke-opacity="1" stroke-miterlimit="10" d="M 94.595213 760.994651 L 94.595213 770.406873 " transform="matrix(0.99895, 0, 0, -0.99895, -43.824059, 803.449889)"/>
</svg>
