<?xml version="1.0" encoding="UTF-8"?>
<svg xmlns="http://www.w3.org/2000/svg" xmlns:xlink="http://www.w3.org/1999/xlink" width="133.981" height="32.4" viewBox="0 0 133.981 32.4">
<defs>
<g>
<g id="glyph-0-0">
<path d="M 6.671875 -5.75 C 6.21875 -5.65625 6.046875 -5.328125 6.046875 -5.046875 C 6.046875 -4.71875 6.328125 -4.609375 6.515625 -4.609375 C 6.9375 -4.609375 7.234375 -4.96875 7.234375 -5.34375 C 7.234375 -5.9375 6.5625 -6.203125 5.96875 -6.203125 C 5.109375 -6.203125 4.625 -5.359375 4.5 -5.09375 C 4.1875 -6.15625 3.3125 -6.203125 3.0625 -6.203125 C 1.625 -6.203125 0.859375 -4.359375 0.859375 -4.046875 C 0.859375 -4 0.921875 -3.921875 1.015625 -3.921875 C 1.125 -3.921875 1.15625 -4.015625 1.1875 -4.0625 C 1.65625 -5.625 2.609375 -5.921875 3.015625 -5.921875 C 3.640625 -5.921875 3.765625 -5.328125 3.765625 -5 C 3.765625 -4.6875 3.6875 -4.359375 3.515625 -3.6875 L 3.046875 -1.765625 C 2.828125 -0.921875 2.421875 -0.140625 1.671875 -0.140625 C 1.609375 -0.140625 1.25 -0.140625 0.953125 -0.328125 C 1.46875 -0.421875 1.578125 -0.84375 1.578125 -1.015625 C 1.578125 -1.296875 1.359375 -1.46875 1.09375 -1.46875 C 0.765625 -1.46875 0.390625 -1.171875 0.390625 -0.71875 C 0.390625 -0.125 1.0625 0.140625 1.65625 0.140625 C 2.34375 0.140625 2.8125 -0.390625 3.109375 -0.96875 C 3.34375 -0.140625 4.046875 0.140625 4.5625 0.140625 C 6 0.140625 6.75 -1.703125 6.75 -2.015625 C 6.75 -2.078125 6.703125 -2.140625 6.609375 -2.140625 C 6.484375 -2.140625 6.46875 -2.0625 6.4375 -1.953125 C 6.046875 -0.71875 5.234375 -0.140625 4.609375 -0.140625 C 4.109375 -0.140625 3.84375 -0.5 3.84375 -1.078125 C 3.84375 -1.390625 3.90625 -1.625 4.125 -2.546875 L 4.625 -4.46875 C 4.828125 -5.3125 5.3125 -5.921875 5.953125 -5.921875 C 5.984375 -5.921875 6.375 -5.921875 6.671875 -5.75 Z M 6.671875 -5.75 "/>
</g>
<g id="glyph-1-0">
<path d="M 2.78125 -6.109375 C 2.78125 -6.3125 2.640625 -6.46875 2.421875 -6.46875 C 2.15625 -6.46875 1.890625 -6.21875 1.890625 -5.953125 C 1.890625 -5.765625 2.03125 -5.59375 2.265625 -5.59375 C 2.484375 -5.59375 2.78125 -5.8125 2.78125 -6.109375 Z M 2.03125 -2.4375 C 2.15625 -2.71875 2.15625 -2.734375 2.25 -3 C 2.328125 -3.203125 2.375 -3.328125 2.375 -3.515625 C 2.375 -3.96875 2.0625 -4.328125 1.578125 -4.328125 C 0.65625 -4.328125 0.28125 -2.90625 0.28125 -2.8125 C 0.28125 -2.71875 0.375 -2.71875 0.40625 -2.71875 C 0.5 -2.71875 0.515625 -2.734375 0.5625 -2.890625 C 0.828125 -3.8125 1.21875 -4.109375 1.546875 -4.109375 C 1.625 -4.109375 1.796875 -4.109375 1.796875 -3.796875 C 1.796875 -3.59375 1.71875 -3.390625 1.6875 -3.28125 C 1.609375 -3.03125 1.15625 -1.890625 1 -1.484375 C 0.90625 -1.21875 0.78125 -0.90625 0.78125 -0.6875 C 0.78125 -0.234375 1.109375 0.109375 1.578125 0.109375 C 2.5 0.109375 2.859375 -1.3125 2.859375 -1.40625 C 2.859375 -1.5 2.78125 -1.5 2.75 -1.5 C 2.65625 -1.5 2.65625 -1.46875 2.609375 -1.328125 C 2.421875 -0.703125 2.109375 -0.109375 1.609375 -0.109375 C 1.4375 -0.109375 1.375 -0.203125 1.375 -0.4375 C 1.375 -0.671875 1.421875 -0.8125 1.65625 -1.40625 Z M 2.03125 -2.4375 "/>
</g>
<g id="glyph-1-1">
<path d="M 2.8125 -6.6875 C 2.8125 -6.6875 2.8125 -6.78125 2.6875 -6.78125 C 2.453125 -6.78125 1.734375 -6.703125 1.484375 -6.6875 C 1.40625 -6.6875 1.296875 -6.671875 1.296875 -6.5 C 1.296875 -6.375 1.390625 -6.375 1.53125 -6.375 C 2 -6.375 2.03125 -6.3125 2.03125 -6.21875 L 2 -6.015625 L 0.578125 -0.375 C 0.53125 -0.25 0.53125 -0.21875 0.53125 -0.171875 C 0.53125 0.0625 0.734375 0.109375 0.828125 0.109375 C 0.953125 0.109375 1.09375 0.015625 1.15625 -0.09375 C 1.203125 -0.1875 1.640625 -2 1.703125 -2.234375 C 2.03125 -2.203125 2.84375 -2.046875 2.84375 -1.40625 C 2.84375 -1.34375 2.84375 -1.296875 2.8125 -1.203125 C 2.78125 -1.078125 2.765625 -0.96875 2.765625 -0.859375 C 2.765625 -0.28125 3.15625 0.109375 3.671875 0.109375 C 3.96875 0.109375 4.21875 -0.046875 4.4375 -0.40625 C 4.6875 -0.84375 4.796875 -1.375 4.796875 -1.40625 C 4.796875 -1.5 4.703125 -1.5 4.671875 -1.5 C 4.578125 -1.5 4.5625 -1.453125 4.53125 -1.328125 C 4.34375 -0.609375 4.125 -0.109375 3.6875 -0.109375 C 3.5 -0.109375 3.375 -0.21875 3.375 -0.5625 C 3.375 -0.734375 3.40625 -0.953125 3.453125 -1.109375 C 3.484375 -1.28125 3.484375 -1.328125 3.484375 -1.421875 C 3.484375 -2.046875 2.875 -2.34375 2.046875 -2.453125 C 2.34375 -2.625 2.65625 -2.9375 2.890625 -3.171875 C 3.359375 -3.6875 3.8125 -4.109375 4.28125 -4.109375 C 4.34375 -4.109375 4.359375 -4.109375 4.375 -4.09375 C 4.484375 -4.078125 4.5 -4.078125 4.578125 -4.015625 C 4.59375 -4.015625 4.59375 -4 4.609375 -3.984375 C 4.140625 -3.953125 4.0625 -3.5625 4.0625 -3.453125 C 4.0625 -3.296875 4.171875 -3.109375 4.4375 -3.109375 C 4.6875 -3.109375 4.96875 -3.328125 4.96875 -3.703125 C 4.96875 -4 4.75 -4.328125 4.296875 -4.328125 C 4.03125 -4.328125 3.578125 -4.25 2.875 -3.46875 C 2.546875 -3.09375 2.15625 -2.703125 1.796875 -2.546875 Z M 2.8125 -6.6875 "/>
</g>
<g id="glyph-1-2">
<path d="M 3.890625 -6.109375 C 3.890625 -6.296875 3.75 -6.46875 3.515625 -6.46875 C 3.28125 -6.46875 3 -6.234375 3 -5.953125 C 3 -5.75 3.125 -5.59375 3.359375 -5.59375 C 3.625 -5.59375 3.890625 -5.84375 3.890625 -6.109375 Z M 1.921875 0.484375 C 1.734375 1.234375 1.265625 1.796875 0.71875 1.796875 C 0.65625 1.796875 0.515625 1.796875 0.328125 1.703125 C 0.625 1.640625 0.765625 1.375 0.765625 1.1875 C 0.765625 1.03125 0.671875 0.84375 0.40625 0.84375 C 0.15625 0.84375 -0.125 1.046875 -0.125 1.40625 C -0.125 1.796875 0.265625 2 0.734375 2 C 1.421875 2 2.328125 1.484375 2.578125 0.515625 L 3.46875 -3.0625 C 3.515625 -3.25 3.515625 -3.390625 3.515625 -3.421875 C 3.515625 -3.984375 3.109375 -4.328125 2.625 -4.328125 C 1.625 -4.328125 1.0625 -2.90625 1.0625 -2.8125 C 1.0625 -2.71875 1.15625 -2.71875 1.1875 -2.71875 C 1.265625 -2.71875 1.28125 -2.734375 1.359375 -2.921875 C 1.609375 -3.515625 2.046875 -4.109375 2.59375 -4.109375 C 2.734375 -4.109375 2.90625 -4.0625 2.90625 -3.65625 C 2.90625 -3.4375 2.875 -3.328125 2.84375 -3.15625 Z M 1.921875 0.484375 "/>
</g>
<g id="glyph-2-0">
<path d="M 10.09375 -3.421875 C 10.09375 -4.734375 10.09375 -5.125 9.765625 -5.578125 C 9.359375 -6.125 8.703125 -6.203125 8.21875 -6.203125 C 7.046875 -6.203125 6.46875 -5.359375 6.234375 -4.8125 C 6.046875 -5.90625 5.28125 -6.203125 4.390625 -6.203125 C 3.03125 -6.203125 2.484375 -5.046875 2.375 -4.765625 L 2.359375 -4.765625 L 2.359375 -6.203125 L 0.453125 -6.046875 L 0.453125 -5.640625 C 1.40625 -5.640625 1.515625 -5.546875 1.515625 -4.859375 L 1.515625 -1.046875 C 1.515625 -0.40625 1.359375 -0.40625 0.453125 -0.40625 L 0.453125 0 C 0.8125 -0.03125 1.578125 -0.03125 1.96875 -0.03125 C 2.375 -0.03125 3.140625 -0.03125 3.5 0 L 3.5 -0.40625 C 2.609375 -0.40625 2.4375 -0.40625 2.4375 -1.046875 L 2.4375 -3.65625 C 2.4375 -5.140625 3.40625 -5.921875 4.28125 -5.921875 C 5.15625 -5.921875 5.34375 -5.203125 5.34375 -4.34375 L 5.34375 -1.046875 C 5.34375 -0.40625 5.1875 -0.40625 4.28125 -0.40625 L 4.28125 0 C 4.640625 -0.03125 5.40625 -0.03125 5.796875 -0.03125 C 6.203125 -0.03125 6.96875 -0.03125 7.328125 0 L 7.328125 -0.40625 C 6.4375 -0.40625 6.265625 -0.40625 6.265625 -1.046875 L 6.265625 -3.65625 C 6.265625 -5.140625 7.234375 -5.921875 8.109375 -5.921875 C 8.984375 -5.921875 9.171875 -5.203125 9.171875 -4.34375 L 9.171875 -1.046875 C 9.171875 -0.40625 9.03125 -0.40625 8.109375 -0.40625 L 8.109375 0 C 8.46875 -0.03125 9.234375 -0.03125 9.625 -0.03125 C 10.03125 -0.03125 10.796875 -0.03125 11.15625 0 L 11.15625 -0.40625 C 10.453125 -0.40625 10.109375 -0.40625 10.09375 -0.828125 Z M 10.09375 -3.421875 "/>
</g>
<g id="glyph-2-1">
<path d="M 5.4375 -3.765625 C 5.4375 -4.515625 5.4375 -5.078125 4.8125 -5.625 C 4.328125 -6.078125 3.6875 -6.28125 3.0625 -6.28125 C 1.921875 -6.28125 1.03125 -5.515625 1.03125 -4.609375 C 1.03125 -4.1875 1.296875 -4 1.625 -4 C 1.953125 -4 2.203125 -4.234375 2.203125 -4.578125 C 2.203125 -5.15625 1.6875 -5.15625 1.484375 -5.15625 C 1.796875 -5.75 2.484375 -6 3.046875 -6 C 3.6875 -6 4.515625 -5.46875 4.515625 -4.1875 L 4.515625 -3.625 C 1.6875 -3.59375 0.625 -2.40625 0.625 -1.328125 C 0.625 -0.21875 1.921875 0.140625 2.765625 0.140625 C 3.703125 0.140625 4.34375 -0.421875 4.609375 -1.09375 C 4.65625 -0.4375 5.09375 0.078125 5.703125 0.078125 C 6 0.078125 6.8125 -0.125 6.8125 -1.25 L 6.8125 -2.046875 L 6.5 -2.046875 L 6.5 -1.25 C 6.5 -0.453125 6.171875 -0.34375 5.96875 -0.34375 C 5.4375 -0.34375 5.4375 -1.078125 5.4375 -1.296875 Z M 4.515625 -1.984375 C 4.515625 -0.609375 3.484375 -0.140625 2.890625 -0.140625 C 2.203125 -0.140625 1.625 -0.640625 1.625 -1.328125 C 1.625 -3.1875 4.015625 -3.34375 4.515625 -3.375 Z M 4.515625 -1.984375 "/>
</g>
<g id="glyph-2-2">
<path d="M 3.9375 -3.328125 C 4.34375 -3.859375 4.9375 -4.625 5.203125 -4.90625 C 5.78125 -5.5625 6.453125 -5.65625 6.890625 -5.65625 L 6.890625 -6.0625 C 6.296875 -6.046875 6.265625 -6.046875 5.71875 -6.046875 C 5.1875 -6.046875 5.15625 -6.046875 4.453125 -6.0625 L 4.453125 -5.65625 C 4.625 -5.625 4.859375 -5.546875 4.859375 -5.21875 C 4.859375 -4.984375 4.734375 -4.828125 4.640625 -4.71875 L 3.75 -3.578125 L 2.640625 -5.03125 C 2.609375 -5.078125 2.515625 -5.203125 2.515625 -5.3125 C 2.515625 -5.390625 2.59375 -5.640625 3.015625 -5.65625 L 3.015625 -6.0625 C 2.65625 -6.046875 1.9375 -6.046875 1.5625 -6.046875 C 1.09375 -6.046875 1.0625 -6.046875 0.21875 -6.0625 L 0.21875 -5.65625 C 0.921875 -5.65625 1.203125 -5.625 1.5 -5.25 L 3.140625 -3.09375 C 3.171875 -3.0625 3.21875 -2.984375 3.21875 -2.9375 C 3.21875 -2.90625 2.125 -1.515625 1.984375 -1.34375 C 1.359375 -0.578125 0.75 -0.421875 0.140625 -0.40625 L 0.140625 0 C 0.671875 -0.03125 0.703125 -0.03125 1.3125 -0.03125 C 1.84375 -0.03125 1.875 -0.03125 2.578125 0 L 2.578125 -0.40625 C 2.234375 -0.453125 2.1875 -0.65625 2.1875 -0.859375 C 2.1875 -1.078125 2.28125 -1.203125 2.421875 -1.375 C 2.625 -1.671875 3.09375 -2.25 3.4375 -2.6875 L 4.59375 -1.1875 C 4.828125 -0.875 4.828125 -0.84375 4.828125 -0.765625 C 4.828125 -0.640625 4.71875 -0.421875 4.34375 -0.40625 L 4.34375 0 C 4.703125 -0.03125 5.390625 -0.03125 5.78125 -0.03125 C 6.25 -0.03125 6.28125 -0.03125 7.125 0 L 7.125 -0.40625 C 6.375 -0.40625 6.125 -0.4375 5.78125 -0.890625 Z M 3.9375 -3.328125 "/>
</g>
</g>
<clipPath id="clip-0">
<path clip-rule="nonzero" d="M 1.207031 1 L 9 1 L 9 9 L 1.207031 9 Z M 1.207031 1 "/>
</clipPath>
<clipPath id="clip-1">
<path clip-rule="nonzero" d="M 1.207031 21 L 9 21 L 9 28 L 1.207031 28 Z M 1.207031 21 "/>
</clipPath>
<clipPath id="clip-2">
<path clip-rule="nonzero" d="M 8 23 L 13 23 L 13 31.8125 L 8 31.8125 Z M 8 23 "/>
</clipPath>
<clipPath id="clip-3">
<path clip-rule="nonzero" d="M 44 0 L 92 0 L 92 31.8125 L 44 31.8125 Z M 44 0 "/>
</clipPath>
</defs>
<g clip-path="url(#clip-0)">
<g fill="rgb(0%, 0%, 0%)" fill-opacity="1">
<use xlink:href="#glyph-0-0" x="1.208682" y="8.048945"/>
</g>
</g>
<g fill="rgb(0%, 0%, 0%)" fill-opacity="1">
<use xlink:href="#glyph-1-0" x="9.045555" y="10.161818"/>
</g>
<g fill="rgb(0%, 0%, 0%)" fill-opacity="1">
<use xlink:href="#glyph-0-0" x="119.026864" y="15.903491"/>
</g>
<g fill="rgb(0%, 0%, 0%)" fill-opacity="1">
<use xlink:href="#glyph-1-1" x="126.863736" y="18.016364"/>
</g>
<path fill="none" stroke-width="0.4" stroke-linecap="butt" stroke-linejoin="round" stroke="rgb(0%, 0%, 0%)" stroke-opacity="1" stroke-miterlimit="10" d="M 327.999187 703.99919 L 347.999549 703.99919 " transform="matrix(0.981818, 0, 0, -0.981818, -230.500409, 707.105455)"/>
<path fill-rule="evenodd" fill="rgb(0%, 0%, 0%)" fill-opacity="1" stroke-width="0.4" stroke-linecap="butt" stroke-linejoin="round" stroke="rgb(0%, 0%, 0%)" stroke-opacity="1" stroke-miterlimit="10" d="M 347.999549 703.99919 L 341.001212 706.330642 L 341.001212 701.667737 Z M 347.999549 703.99919 " transform="matrix(0.981818, 0, 0, -0.981818, -230.500409, 707.105455)"/>
<g clip-path="url(#clip-1)">
<g fill="rgb(0%, 0%, 0%)" fill-opacity="1">
<use xlink:href="#glyph-0-0" x="1.208682" y="27.688255"/>
</g>
</g>
<g clip-path="url(#clip-2)">
<g fill="rgb(0%, 0%, 0%)" fill-opacity="1">
<use xlink:href="#glyph-1-2" x="9.045555" y="29.801127"/>
</g>
</g>
<g clip-path="url(#clip-3)">
<path fill="none" stroke-width="0.4" stroke-linecap="butt" stroke-linejoin="round" stroke="rgb(0%, 0%, 0%)" stroke-opacity="1" stroke-miterlimit="10" d="M 280.001502 720.001071 L 280.001502 688.001288 L 327.999187 688.001288 L 327.999187 720.001071 Z M 280.001502 720.001071 " transform="matrix(0.981818, 0, 0, -0.981818, -230.500409, 707.105455)"/>
</g>
<path fill="none" stroke-width="0.4" stroke-linecap="butt" stroke-linejoin="round" stroke="rgb(0%, 0%, 0%)" stroke-opacity="1" stroke-miterlimit="10" d="M 260.00114 712.00013 L 280.001502 712.00013 " transform="matrix(0.981818, 0, 0, -0.981818, -230.500409, 707.105455)"/>
<path fill-rule="evenodd" fill="rgb(0%, 0%, 0%)" fill-opacity="1" stroke-width="0.4" stroke-linecap="butt" stroke-linejoin="round" stroke="rgb(0%, 0%, 0%)" stroke-opacity="1" stroke-miterlimit="10" d="M 280.001502 712.00013 L 272.999187 714.331583 L 272.999187 709.668678 Z M 280.001502 712.00013 " transform="matrix(0.981818, 0, 0, -0.981818, -230.500409, 707.105455)"/>
<path fill="none" stroke-width="0.4" stroke-linecap="butt" stroke-linejoin="round" stroke="rgb(0%, 0%, 0%)" stroke-opacity="1" stroke-miterlimit="10" d="M 260.00114 695.998249 L 280.001502 695.998249 " transform="matrix(0.981818, 0, 0, -0.981818, -230.500409, 707.105455)"/>
<path fill-rule="evenodd" fill="rgb(0%, 0%, 0%)" fill-opacity="1" stroke-width="0.4" stroke-linecap="butt" stroke-linejoin="round" stroke="rgb(0%, 0%, 0%)" stroke-opacity="1" stroke-miterlimit="10" d="M 280.001502 695.998249 L 272.999187 698.329702 L 272.999187 693.670775 Z M 280.001502 695.998249 " transform="matrix(0.981818, 0, 0, -0.981818, -230.500409, 707.105455)"/>
<g fill="rgb(0%, 0%, 0%)" fill-opacity="1">
<use xlink:href="#glyph-2-0" x="56.1905" y="19.832727"/>
<use xlink:href="#glyph-2-1" x="67.684154" y="19.832727"/>
<use xlink:href="#glyph-2-2" x="74.580346" y="19.832727"/>
</g>
</svg>
