<?xml version="1.0" encoding="UTF-8"?>
<svg xmlns="http://www.w3.org/2000/svg" xmlns:xlink="http://www.w3.org/1999/xlink" width="153.154" height="32.4" viewBox="0 0 153.154 32.4">
<defs>
<g>
<g id="glyph-0-0">
<path d="M 6.671875 -5.75 C 6.21875 -5.65625 6.046875 -5.328125 6.046875 -5.046875 C 6.046875 -4.71875 6.328125 -4.609375 6.515625 -4.609375 C 6.9375 -4.609375 7.234375 -4.96875 7.234375 -5.34375 C 7.234375 -5.9375 6.5625 -6.203125 5.96875 -6.203125 C 5.109375 -6.203125 4.625 -5.359375 4.5 -5.09375 C 4.1875 -6.15625 3.3125 -6.203125 3.0625 -6.203125 C 1.625 -6.203125 0.859375 -4.359375 0.859375 -4.046875 C 0.859375 -4 0.921875 -3.921875 1.015625 -3.921875 C 1.125 -3.921875 1.15625 -4.015625 1.1875 -4.0625 C 1.65625 -5.625 2.609375 -5.921875 3.015625 -5.921875 C 3.640625 -5.921875 3.765625 -5.328125 3.765625 -5 C 3.765625 -4.6875 3.6875 -4.359375 3.515625 -3.6875 L 3.046875 -1.765625 C 2.828125 -0.921875 2.421875 -0.140625 1.671875 -0.140625 C 1.609375 -0.140625 1.25 -0.140625 0.953125 -0.328125 C 1.46875 -0.421875 1.578125 -0.84375 1.578125 -1.015625 C 1.578125 -1.296875 1.359375 -1.46875 1.09375 -1.46875 C 0.765625 -1.46875 0.390625 -1.171875 0.390625 -0.71875 C 0.390625 -0.125 1.0625 0.140625 1.65625 0.140625 C 2.34375 0.140625 2.8125 -0.390625 3.109375 -0.96875 C 3.34375 -0.140625 4.046875 0.140625 4.5625 0.140625 C 6 0.140625 6.75 -1.703125 6.75 -2.015625 C 6.75 -2.078125 6.703125 -2.140625 6.609375 -2.140625 C 6.484375 -2.140625 6.46875 -2.0625 6.4375 -1.953125 C 6.046875 -0.71875 5.234375 -0.140625 4.609375 -0.140625 C 4.109375 -0.140625 3.84375 -0.5 3.84375 -1.078125 C 3.84375 -1.390625 3.90625 -1.625 4.125 -2.546875 L 4.625 -4.46875 C 4.828125 -5.3125 5.3125 -5.921875 5.953125 -5.921875 C 5.984375 -5.921875 6.375 -5.921875 6.671875 -5.75 Z M 6.671875 -5.75 "/>
</g>
<g id="glyph-1-0">
<path d="M 2.78125 -6.109375 C 2.78125 -6.3125 2.640625 -6.46875 2.421875 -6.46875 C 2.15625 -6.46875 1.890625 -6.21875 1.890625 -5.953125 C 1.890625 -5.765625 2.03125 -5.59375 2.265625 -5.59375 C 2.484375 -5.59375 2.78125 -5.8125 2.78125 -6.109375 Z M 2.03125 -2.4375 C 2.15625 -2.71875 2.15625 -2.734375 2.25 -3 C 2.328125 -3.203125 2.375 -3.328125 2.375 -3.515625 C 2.375 -3.96875 2.0625 -4.328125 1.578125 -4.328125 C 0.65625 -4.328125 0.28125 -2.90625 0.28125 -2.8125 C 0.28125 -2.71875 0.375 -2.71875 0.40625 -2.71875 C 0.5 -2.71875 0.515625 -2.734375 0.5625 -2.890625 C 0.828125 -3.8125 1.21875 -4.109375 1.546875 -4.109375 C 1.625 -4.109375 1.796875 -4.109375 1.796875 -3.796875 C 1.796875 -3.59375 1.71875 -3.390625 1.6875 -3.28125 C 1.609375 -3.03125 1.15625 -1.890625 1 -1.484375 C 0.90625 -1.21875 0.78125 -0.90625 0.78125 -0.6875 C 0.78125 -0.234375 1.109375 0.109375 1.578125 0.109375 C 2.5 0.109375 2.859375 -1.3125 2.859375 -1.40625 C 2.859375 -1.5 2.78125 -1.5 2.75 -1.5 C 2.65625 -1.5 2.65625 -1.46875 2.609375 -1.328125 C 2.421875 -0.703125 2.109375 -0.109375 1.609375 -0.109375 C 1.4375 -0.109375 1.375 -0.203125 1.375 -0.4375 C 1.375 -0.671875 1.421875 -0.8125 1.65625 -1.40625 Z M 2.03125 -2.4375 "/>
</g>
<g id="glyph-1-1">
<path d="M 3.890625 -6.109375 C 3.890625 -6.296875 3.75 -6.46875 3.515625 -6.46875 C 3.28125 -6.46875 3 -6.234375 3 -5.953125 C 3 -5.75 3.125 -5.59375 3.359375 -5.59375 C 3.625 -5.59375 3.890625 -5.84375 3.890625 -6.109375 Z M 1.921875 0.484375 C 1.734375 1.234375 1.265625 1.796875 0.71875 1.796875 C 0.65625 1.796875 0.515625 1.796875 0.328125 1.703125 C 0.625 1.640625 0.765625 1.375 0.765625 1.1875 C 0.765625 1.03125 0.671875 0.84375 0.40625 0.84375 C 0.15625 0.84375 -0.125 1.046875 -0.125 1.40625 C -0.125 1.796875 0.265625 2 0.734375 2 C 1.421875 2 2.328125 1.484375 2.578125 0.515625 L 3.46875 -3.0625 C 3.515625 -3.25 3.515625 -3.390625 3.515625 -3.421875 C 3.515625 -3.984375 3.109375 -4.328125 2.625 -4.328125 C 1.625 -4.328125 1.0625 -2.90625 1.0625 -2.8125 C 1.0625 -2.71875 1.15625 -2.71875 1.1875 -2.71875 C 1.265625 -2.71875 1.28125 -2.734375 1.359375 -2.921875 C 1.609375 -3.515625 2.046875 -4.109375 2.59375 -4.109375 C 2.734375 -4.109375 2.90625 -4.0625 2.90625 -3.65625 C 2.90625 -3.4375 2.875 -3.328125 2.84375 -3.15625 Z M 1.921875 0.484375 "/>
</g>
<g id="glyph-2-0">
<path d="M 12.609375 -11.75 C 12.609375 -11.90625 12.5 -11.90625 12.453125 -11.90625 C 12.421875 -11.90625 12.359375 -11.90625 12.21875 -11.734375 L 11.0625 -10.328125 C 10.96875 -10.46875 10.640625 -11.0625 9.96875 -11.453125 C 9.25 -11.90625 8.515625 -11.90625 8.265625 -11.90625 C 4.65625 -11.90625 0.84375 -8.21875 0.84375 -4.234375 C 0.84375 -1.4375 2.765625 0.359375 5.3125 0.359375 C 6.53125 0.359375 8.0625 -0.046875 8.90625 -1.109375 C 9.09375 -0.46875 9.46875 -0.015625 9.578125 -0.015625 C 9.671875 -0.015625 9.6875 -0.0625 9.703125 -0.0625 C 9.71875 -0.09375 9.859375 -0.6875 9.9375 -1 L 10.21875 -2.078125 C 10.34375 -2.640625 10.421875 -2.875 10.53125 -3.375 C 10.703125 -4.03125 10.734375 -4.078125 11.671875 -4.09375 C 11.734375 -4.09375 11.9375 -4.09375 11.9375 -4.40625 C 11.9375 -4.578125 11.765625 -4.578125 11.71875 -4.578125 C 11.421875 -4.578125 11.109375 -4.546875 10.796875 -4.546875 L 9.890625 -4.546875 C 9.1875 -4.546875 8.4375 -4.578125 7.75 -4.578125 C 7.59375 -4.578125 7.390625 -4.578125 7.390625 -4.28125 C 7.390625 -4.109375 7.515625 -4.109375 7.515625 -4.09375 L 7.953125 -4.09375 C 9.28125 -4.09375 9.28125 -3.953125 9.28125 -3.703125 C 9.28125 -3.6875 8.953125 -1.984375 8.640625 -1.46875 C 8 -0.53125 6.65625 -0.140625 5.65625 -0.140625 C 4.359375 -0.140625 2.25 -0.8125 2.25 -3.734375 C 2.25 -4.875 2.65625 -7.453125 4.296875 -9.359375 C 5.359375 -10.578125 6.9375 -11.40625 8.421875 -11.40625 C 10.421875 -11.40625 11.125 -9.703125 11.125 -8.15625 C 11.125 -7.875 11.0625 -7.5 11.0625 -7.265625 C 11.0625 -7.125 11.21875 -7.125 11.28125 -7.125 C 11.46875 -7.125 11.484375 -7.140625 11.546875 -7.4375 Z M 12.609375 -11.75 "/>
</g>
<g id="glyph-3-0">
<path d="M 3.375 -7.515625 C 3.375 -7.796875 3.375 -7.796875 3.140625 -7.796875 C 2.859375 -7.484375 2.28125 -7.046875 1.0625 -7.046875 L 1.0625 -6.71875 C 1.34375 -6.71875 1.921875 -6.71875 2.5625 -7.015625 L 2.5625 -0.90625 C 2.5625 -0.484375 2.53125 -0.34375 1.5 -0.34375 L 1.140625 -0.34375 L 1.140625 0 C 1.453125 -0.03125 2.59375 -0.03125 2.984375 -0.03125 C 3.375 -0.03125 4.5 -0.03125 4.8125 0 L 4.8125 -0.34375 L 4.453125 -0.34375 C 3.421875 -0.34375 3.375 -0.484375 3.375 -0.90625 Z M 3.375 -7.515625 "/>
</g>
<g id="glyph-3-1">
<path d="M 4.6875 -2.703125 L 7.921875 -2.703125 C 8.078125 -2.703125 8.296875 -2.703125 8.296875 -2.921875 C 8.296875 -3.140625 8.09375 -3.140625 7.921875 -3.140625 L 4.6875 -3.140625 L 4.6875 -6.390625 C 4.6875 -6.546875 4.6875 -6.765625 4.46875 -6.765625 C 4.25 -6.765625 4.25 -6.5625 4.25 -6.390625 L 4.25 -3.140625 L 1.015625 -3.140625 C 0.84375 -3.140625 0.640625 -3.140625 0.640625 -2.9375 C 0.640625 -2.703125 0.828125 -2.703125 1.015625 -2.703125 L 4.25 -2.703125 L 4.25 0.53125 C 4.25 0.6875 4.25 0.90625 4.453125 0.90625 C 4.6875 0.90625 4.6875 0.703125 4.6875 0.53125 Z M 4.6875 -2.703125 "/>
</g>
<g id="glyph-4-0">
<path d="M 2.421875 -3.4375 C 2.4375 -3.515625 2.734375 -4.09375 3.171875 -4.46875 C 3.46875 -4.75 3.875 -4.9375 4.328125 -4.9375 C 4.796875 -4.9375 4.96875 -4.59375 4.96875 -4.125 C 4.96875 -3.453125 4.484375 -2.109375 4.25 -1.484375 C 4.140625 -1.203125 4.078125 -1.046875 4.078125 -0.828125 C 4.078125 -0.3125 4.453125 0.125 5.015625 0.125 C 6.109375 0.125 6.515625 -1.609375 6.515625 -1.671875 C 6.515625 -1.734375 6.46875 -1.78125 6.390625 -1.78125 C 6.296875 -1.78125 6.28125 -1.75 6.21875 -1.546875 C 5.953125 -0.59375 5.5 -0.125 5.046875 -0.125 C 4.921875 -0.125 4.734375 -0.125 4.734375 -0.5 C 4.734375 -0.796875 4.875 -1.15625 4.9375 -1.3125 C 5.171875 -1.953125 5.671875 -3.28125 5.671875 -3.9375 C 5.671875 -4.640625 5.25 -5.171875 4.359375 -5.171875 C 3.328125 -5.171875 2.765625 -4.4375 2.5625 -4.140625 C 2.515625 -4.8125 2.046875 -5.171875 1.53125 -5.171875 C 1.15625 -5.171875 0.890625 -4.953125 0.6875 -4.546875 C 0.484375 -4.125 0.3125 -3.421875 0.3125 -3.375 C 0.3125 -3.328125 0.359375 -3.28125 0.453125 -3.28125 C 0.546875 -3.28125 0.546875 -3.28125 0.625 -3.5625 C 0.8125 -4.265625 1.015625 -4.9375 1.484375 -4.9375 C 1.765625 -4.9375 1.859375 -4.75 1.859375 -4.40625 C 1.859375 -4.140625 1.734375 -3.6875 1.65625 -3.328125 L 1.328125 -2.046875 C 1.28125 -1.828125 1.15625 -1.296875 1.09375 -1.09375 C 1.015625 -0.78125 0.875 -0.234375 0.875 -0.171875 C 0.875 -0.015625 1.015625 0.125 1.1875 0.125 C 1.328125 0.125 1.484375 0.046875 1.578125 -0.125 C 1.609375 -0.1875 1.71875 -0.59375 1.765625 -0.828125 L 2.03125 -1.890625 Z M 2.421875 -3.4375 "/>
</g>
<g id="glyph-4-1">
<path d="M 2.671875 -2.34375 C 2.875 -2.3125 3.1875 -2.234375 3.265625 -2.234375 C 3.421875 -2.1875 3.9375 -2 3.9375 -1.4375 C 3.9375 -1.0625 3.609375 -0.125 2.25 -0.125 C 2 -0.125 1.125 -0.15625 0.890625 -0.796875 C 1.359375 -0.734375 1.59375 -1.109375 1.59375 -1.359375 C 1.59375 -1.609375 1.4375 -1.734375 1.203125 -1.734375 C 0.9375 -1.734375 0.59375 -1.53125 0.59375 -1.015625 C 0.59375 -0.3125 1.296875 0.125 2.234375 0.125 C 4.03125 0.125 4.546875 -1.203125 4.546875 -1.8125 C 4.546875 -1.984375 4.546875 -2.3125 4.171875 -2.6875 C 3.890625 -2.96875 3.609375 -3.03125 2.96875 -3.15625 C 2.65625 -3.234375 2.140625 -3.328125 2.140625 -3.859375 C 2.140625 -4.09375 2.359375 -4.9375 3.46875 -4.9375 C 3.96875 -4.9375 4.453125 -4.75 4.5625 -4.328125 C 4.046875 -4.328125 4.03125 -3.890625 4.03125 -3.875 C 4.03125 -3.625 4.25 -3.5625 4.359375 -3.5625 C 4.515625 -3.5625 4.84375 -3.6875 4.84375 -4.171875 C 4.84375 -4.671875 4.40625 -5.171875 3.484375 -5.171875 C 1.953125 -5.171875 1.53125 -3.96875 1.53125 -3.484375 C 1.53125 -2.59375 2.40625 -2.40625 2.671875 -2.34375 Z M 2.671875 -2.34375 "/>
</g>
<g id="glyph-4-2">
<path d="M 5.90625 -7.84375 C 5.921875 -7.890625 5.9375 -7.96875 5.9375 -8.03125 C 5.9375 -8.140625 5.8125 -8.140625 5.796875 -8.140625 C 5.78125 -8.140625 5.203125 -8.09375 5.15625 -8.078125 C 4.953125 -8.078125 4.78125 -8.046875 4.5625 -8.03125 C 4.265625 -8.015625 4.1875 -8 4.1875 -7.796875 C 4.1875 -7.671875 4.28125 -7.671875 4.453125 -7.671875 C 5.015625 -7.671875 5.03125 -7.5625 5.03125 -7.453125 C 5.03125 -7.375 5.015625 -7.28125 5 -7.25 L 4.28125 -4.40625 C 4.15625 -4.703125 3.84375 -5.171875 3.234375 -5.171875 C 1.90625 -5.171875 0.46875 -3.46875 0.46875 -1.71875 C 0.46875 -0.5625 1.15625 0.125 1.953125 0.125 C 2.59375 0.125 3.140625 -0.390625 3.46875 -0.78125 C 3.59375 -0.078125 4.140625 0.125 4.5 0.125 C 4.84375 0.125 5.125 -0.09375 5.34375 -0.515625 C 5.53125 -0.921875 5.6875 -1.625 5.6875 -1.671875 C 5.6875 -1.734375 5.640625 -1.78125 5.578125 -1.78125 C 5.46875 -1.78125 5.453125 -1.71875 5.40625 -1.546875 C 5.234375 -0.859375 5.015625 -0.125 4.53125 -0.125 C 4.1875 -0.125 4.171875 -0.421875 4.171875 -0.65625 C 4.171875 -0.703125 4.171875 -0.953125 4.25 -1.28125 Z M 3.53125 -1.390625 C 3.46875 -1.203125 3.46875 -1.171875 3.3125 -0.953125 C 3.046875 -0.625 2.53125 -0.125 1.984375 -0.125 C 1.5 -0.125 1.234375 -0.546875 1.234375 -1.25 C 1.234375 -1.890625 1.59375 -3.203125 1.8125 -3.703125 C 2.21875 -4.515625 2.765625 -4.9375 3.234375 -4.9375 C 4 -4.9375 4.15625 -3.984375 4.15625 -3.890625 C 4.15625 -3.875 4.125 -3.71875 4.109375 -3.703125 Z M 3.53125 -1.390625 "/>
</g>
<g id="glyph-5-0">
<path d="M 2.875 -6.265625 C 2.875 -6.5 2.875 -6.515625 2.65625 -6.515625 C 2.046875 -5.890625 1.1875 -5.890625 0.875 -5.890625 L 0.875 -5.578125 C 1.0625 -5.578125 1.640625 -5.578125 2.15625 -5.84375 L 2.15625 -0.765625 C 2.15625 -0.421875 2.125 -0.296875 1.25 -0.296875 L 0.921875 -0.296875 L 0.921875 0 C 1.265625 -0.03125 2.125 -0.03125 2.515625 -0.03125 C 2.90625 -0.03125 3.75 -0.03125 4.09375 0 L 4.09375 -0.296875 L 3.78125 -0.296875 C 2.90625 -0.296875 2.875 -0.40625 2.875 -0.765625 Z M 2.875 -6.265625 "/>
</g>
<g id="glyph-5-1">
<path d="M 1.25 -0.75 L 2.28125 -1.765625 C 3.8125 -3.109375 4.390625 -3.640625 4.390625 -4.609375 C 4.390625 -5.734375 3.515625 -6.515625 2.3125 -6.515625 C 1.21875 -6.515625 0.484375 -5.609375 0.484375 -4.75 C 0.484375 -4.203125 0.984375 -4.203125 1 -4.203125 C 1.171875 -4.203125 1.515625 -4.3125 1.515625 -4.71875 C 1.515625 -4.96875 1.34375 -5.21875 1 -5.21875 C 0.921875 -5.21875 0.90625 -5.21875 0.875 -5.21875 C 1.09375 -5.84375 1.625 -6.21875 2.1875 -6.21875 C 3.078125 -6.21875 3.5 -5.421875 3.5 -4.609375 C 3.5 -3.828125 3.015625 -3.0625 2.46875 -2.453125 L 0.59375 -0.359375 C 0.484375 -0.25 0.484375 -0.234375 0.484375 0 L 4.125 0 L 4.390625 -1.703125 L 4.140625 -1.703125 C 4.09375 -1.40625 4.03125 -0.984375 3.9375 -0.828125 C 3.859375 -0.75 3.21875 -0.75 3 -0.75 Z M 1.25 -0.75 "/>
</g>
</g>
<clipPath id="clip-0">
<path clip-rule="nonzero" d="M 32 0 L 119 0 L 119 31.8125 L 32 31.8125 Z M 32 0 "/>
</clipPath>
</defs>
<g fill="rgb(0%, 0%, 0%)" fill-opacity="1">
<use xlink:href="#glyph-0-0" x="0.977" y="15.903491"/>
</g>
<g fill="rgb(0%, 0%, 0%)" fill-opacity="1">
<use xlink:href="#glyph-1-0" x="8.813873" y="18.016364"/>
</g>
<g fill="rgb(0%, 0%, 0%)" fill-opacity="1">
<use xlink:href="#glyph-0-0" x="138.431545" y="15.906436"/>
</g>
<g fill="rgb(0%, 0%, 0%)" fill-opacity="1">
<use xlink:href="#glyph-1-1" x="146.268418" y="18.019309"/>
</g>
<g fill="rgb(0%, 0%, 0%)" fill-opacity="1">
<use xlink:href="#glyph-2-0" x="36.322455" y="19.842545"/>
</g>
<g fill="rgb(0%, 0%, 0%)" fill-opacity="1">
<use xlink:href="#glyph-3-0" x="50.550964" y="12.768545"/>
<use xlink:href="#glyph-3-1" x="56.297807" y="12.768545"/>
</g>
<g fill="rgb(0%, 0%, 0%)" fill-opacity="1">
<use xlink:href="#glyph-4-0" x="65.237" y="12.768545"/>
</g>
<g fill="rgb(0%, 0%, 0%)" fill-opacity="1">
<use xlink:href="#glyph-5-0" x="72.096964" y="15.029673"/>
</g>
<g fill="rgb(0%, 0%, 0%)" fill-opacity="1">
<use xlink:href="#glyph-4-1" x="77.477327" y="12.768545"/>
</g>
<g fill="rgb(0%, 0%, 0%)" fill-opacity="1">
<use xlink:href="#glyph-3-1" x="82.891073" y="12.768545"/>
</g>
<g fill="rgb(0%, 0%, 0%)" fill-opacity="1">
<use xlink:href="#glyph-4-0" x="91.829545" y="12.768545"/>
</g>
<g fill="rgb(0%, 0%, 0%)" fill-opacity="1">
<use xlink:href="#glyph-5-1" x="98.690491" y="15.029673"/>
</g>
<g fill="rgb(0%, 0%, 0%)" fill-opacity="1">
<use xlink:href="#glyph-4-1" x="104.069873" y="12.768545"/>
</g>
<g fill="rgb(0%, 0%, 0%)" fill-opacity="1">
<use xlink:href="#glyph-5-1" x="109.483618" y="8.509418"/>
</g>
<path fill="none" stroke-width="0.398" stroke-linecap="butt" stroke-linejoin="round" stroke="rgb(0%, 0%, 0%)" stroke-opacity="1" stroke-miterlimit="10" d="M -0.000185764 -0.000394676 L 65.503286 -0.000394676 " transform="matrix(0.981818, 0, 0, -0.981818, 50.550964, 15.6168)"/>
<g fill="rgb(0%, 0%, 0%)" fill-opacity="1">
<use xlink:href="#glyph-3-0" x="51.439509" y="25.8984"/>
<use xlink:href="#glyph-3-1" x="57.186352" y="25.8984"/>
</g>
<g fill="rgb(0%, 0%, 0%)" fill-opacity="1">
<use xlink:href="#glyph-4-2" x="66.124564" y="25.8984"/>
</g>
<g fill="rgb(0%, 0%, 0%)" fill-opacity="1">
<use xlink:href="#glyph-5-0" x="72.096964" y="28.158545"/>
</g>
<g fill="rgb(0%, 0%, 0%)" fill-opacity="1">
<use xlink:href="#glyph-4-1" x="77.477327" y="25.8984"/>
</g>
<g fill="rgb(0%, 0%, 0%)" fill-opacity="1">
<use xlink:href="#glyph-3-1" x="82.891073" y="25.8984"/>
</g>
<g fill="rgb(0%, 0%, 0%)" fill-opacity="1">
<use xlink:href="#glyph-4-2" x="91.829545" y="25.8984"/>
</g>
<g fill="rgb(0%, 0%, 0%)" fill-opacity="1">
<use xlink:href="#glyph-5-1" x="97.801945" y="28.158545"/>
</g>
<g fill="rgb(0%, 0%, 0%)" fill-opacity="1">
<use xlink:href="#glyph-4-1" x="103.181327" y="25.8984"/>
</g>
<g fill="rgb(0%, 0%, 0%)" fill-opacity="1">
<use xlink:href="#glyph-5-1" x="108.595073" y="22.5072"/>
</g>
<g clip-path="url(#clip-0)">
<path fill="none" stroke-width="0.4" stroke-linecap="butt" stroke-linejoin="round" stroke="rgb(0%, 0%, 0%)" stroke-opacity="1" stroke-miterlimit="10" d="M 83.999337 784.001071 L 83.999337 752.001288 L 172.001725 752.001288 L 172.001725 784.001071 Z M 83.999337 784.001071 " transform="matrix(0.981818, 0, 0, -0.981818, -50.077545, 769.941818)"/>
</g>
<path fill="none" stroke-width="0.4" stroke-linecap="butt" stroke-linejoin="round" stroke="rgb(0%, 0%, 0%)" stroke-opacity="1" stroke-miterlimit="10" d="M 68.001435 767.99919 L 83.999337 767.99919 " transform="matrix(0.981818, 0, 0, -0.981818, -50.077545, 769.941818)"/>
<path fill-rule="evenodd" fill="rgb(0%, 0%, 0%)" fill-opacity="1" stroke-width="0.4" stroke-linecap="butt" stroke-linejoin="round" stroke="rgb(0%, 0%, 0%)" stroke-opacity="1" stroke-miterlimit="10" d="M 83.999337 767.99919 L 77.001001 770.330642 L 77.001001 765.667737 Z M 83.999337 767.99919 " transform="matrix(0.981818, 0, 0, -0.981818, -50.077545, 769.941818)"/>
<path fill="none" stroke-width="0.4" stroke-linecap="butt" stroke-linejoin="round" stroke="rgb(0%, 0%, 0%)" stroke-opacity="1" stroke-miterlimit="10" d="M 172.001725 767.99919 L 187.999627 767.99919 " transform="matrix(0.981818, 0, 0, -0.981818, -50.077545, 769.941818)"/>
<path fill-rule="evenodd" fill="rgb(0%, 0%, 0%)" fill-opacity="1" stroke-width="0.4" stroke-linecap="butt" stroke-linejoin="round" stroke="rgb(0%, 0%, 0%)" stroke-opacity="1" stroke-miterlimit="10" d="M 187.999627 767.99919 L 181.001291 770.330642 L 181.001291 765.667737 Z M 187.999627 767.99919 " transform="matrix(0.981818, 0, 0, -0.981818, -50.077545, 769.941818)"/>
</svg>
