<?xml version="1.0" encoding="UTF-8"?>
<svg xmlns="http://www.w3.org/2000/svg" xmlns:xlink="http://www.w3.org/1999/xlink" width="396.702" height="157.671" viewBox="0 0 396.702 157.671">
<defs>
<g>
<g id="glyph-0-0">
<path d="M 5.265625 -8.71875 C 5.390625 -9.21875 5.421875 -9.359375 6.46875 -9.359375 C 6.78125 -9.359375 6.90625 -9.359375 6.90625 -9.625 C 6.90625 -9.78125 6.734375 -9.78125 6.703125 -9.78125 C 6.4375 -9.78125 6.125 -9.75 5.875 -9.75 L 4.109375 -9.75 C 3.828125 -9.75 3.5 -9.78125 3.203125 -9.78125 C 3.09375 -9.78125 2.9375 -9.78125 2.9375 -9.5 C 2.9375 -9.359375 3.046875 -9.359375 3.328125 -9.359375 C 4.21875 -9.359375 4.21875 -9.25 4.21875 -9.09375 C 4.21875 -8.984375 4.1875 -8.90625 4.171875 -8.78125 L 2.234375 -1.0625 C 2.109375 -0.5625 2.078125 -0.421875 1.03125 -0.421875 C 0.71875 -0.421875 0.59375 -0.421875 0.59375 -0.140625 C 0.59375 0 0.734375 0 0.796875 0 C 1.0625 0 1.375 -0.03125 1.625 -0.03125 L 3.390625 -0.03125 C 3.671875 -0.03125 4 0 4.28125 0 C 4.390625 0 4.5625 0 4.5625 -0.25 C 4.5625 -0.421875 4.484375 -0.421875 4.171875 -0.421875 C 3.28125 -0.421875 3.28125 -0.53125 3.28125 -0.703125 C 3.28125 -0.734375 3.28125 -0.796875 3.328125 -1.03125 Z M 5.265625 -8.71875 "/>
</g>
<g id="glyph-0-1">
<path d="M 8.859375 -8.1875 C 9.34375 -8.953125 9.796875 -9.296875 10.515625 -9.359375 C 10.65625 -9.375 10.78125 -9.375 10.78125 -9.625 C 10.78125 -9.6875 10.75 -9.78125 10.625 -9.78125 C 10.359375 -9.78125 9.75 -9.75 9.484375 -9.75 C 9.078125 -9.75 8.640625 -9.78125 8.25 -9.78125 C 8.125 -9.78125 7.984375 -9.78125 7.984375 -9.5 C 7.984375 -9.375 8.109375 -9.359375 8.171875 -9.359375 C 8.703125 -9.3125 8.765625 -9.0625 8.765625 -8.890625 C 8.765625 -8.671875 8.5625 -8.34375 8.546875 -8.328125 L 4.046875 -1.203125 L 3.046875 -8.921875 C 3.046875 -9.328125 3.796875 -9.359375 3.953125 -9.359375 C 4.171875 -9.359375 4.296875 -9.359375 4.296875 -9.625 C 4.296875 -9.78125 4.140625 -9.78125 4.09375 -9.78125 C 3.84375 -9.78125 3.5625 -9.75 3.328125 -9.75 L 2.515625 -9.75 C 1.46875 -9.75 1.046875 -9.78125 1.03125 -9.78125 C 0.9375 -9.78125 0.765625 -9.78125 0.765625 -9.515625 C 0.765625 -9.359375 0.875 -9.359375 1.109375 -9.359375 C 1.828125 -9.359375 1.875 -9.234375 1.921875 -8.875 L 3.0625 -0.046875 C 3.109375 0.25 3.109375 0.296875 3.3125 0.296875 C 3.484375 0.296875 3.546875 0.25 3.6875 0.03125 Z M 8.859375 -8.1875 "/>
</g>
<g id="glyph-0-2">
<path d="M 10.671875 -9.953125 C 10.671875 -10.078125 10.578125 -10.078125 10.546875 -10.078125 C 10.515625 -10.078125 10.46875 -10.078125 10.34375 -9.9375 L 9.359375 -8.75 C 9.28125 -8.859375 9 -9.359375 8.4375 -9.6875 C 7.828125 -10.078125 7.21875 -10.078125 7 -10.078125 C 3.9375 -10.078125 0.71875 -6.953125 0.71875 -3.578125 C 0.71875 -1.21875 2.34375 0.296875 4.5 0.296875 C 5.53125 0.296875 6.828125 -0.046875 7.546875 -0.9375 C 7.703125 -0.40625 8.015625 -0.015625 8.109375 -0.015625 C 8.1875 -0.015625 8.203125 -0.0625 8.21875 -0.0625 C 8.234375 -0.078125 8.34375 -0.59375 8.421875 -0.84375 L 8.640625 -1.765625 C 8.765625 -2.234375 8.8125 -2.4375 8.921875 -2.859375 C 9.0625 -3.40625 9.09375 -3.453125 9.875 -3.46875 C 9.9375 -3.46875 10.109375 -3.46875 10.109375 -3.734375 C 10.109375 -3.875 9.96875 -3.875 9.921875 -3.875 C 9.671875 -3.875 9.40625 -3.84375 9.140625 -3.84375 L 8.375 -3.84375 C 7.765625 -3.84375 7.140625 -3.875 6.5625 -3.875 C 6.421875 -3.875 6.25 -3.875 6.25 -3.625 C 6.25 -3.484375 6.375 -3.484375 6.375 -3.46875 L 6.734375 -3.46875 C 7.859375 -3.46875 7.859375 -3.34375 7.859375 -3.140625 C 7.859375 -3.125 7.578125 -1.671875 7.3125 -1.25 C 6.765625 -0.4375 5.640625 -0.109375 4.796875 -0.109375 C 3.6875 -0.109375 1.90625 -0.6875 1.90625 -3.15625 C 1.90625 -4.125 2.25 -6.3125 3.640625 -7.921875 C 4.53125 -8.953125 5.875 -9.65625 7.125 -9.65625 C 8.8125 -9.65625 9.421875 -8.21875 9.421875 -6.90625 C 9.421875 -6.671875 9.359375 -6.359375 9.359375 -6.15625 C 9.359375 -6.03125 9.5 -6.03125 9.546875 -6.03125 C 9.703125 -6.03125 9.71875 -6.046875 9.78125 -6.296875 Z M 10.671875 -9.953125 "/>
</g>
<g id="glyph-0-3">
<path d="M 5.234375 -8.796875 C 5.375 -9.328125 5.421875 -9.359375 5.984375 -9.359375 L 7.84375 -9.359375 C 9.453125 -9.359375 9.453125 -7.984375 9.453125 -7.859375 C 9.453125 -6.703125 8.296875 -5.21875 6.40625 -5.21875 L 4.34375 -5.21875 Z M 7.65625 -5.109375 C 9.21875 -5.390625 10.640625 -6.484375 10.640625 -7.796875 C 10.640625 -8.921875 9.640625 -9.78125 8.03125 -9.78125 L 3.4375 -9.78125 C 3.15625 -9.78125 3.03125 -9.78125 3.03125 -9.5 C 3.03125 -9.359375 3.15625 -9.359375 3.375 -9.359375 C 4.25 -9.359375 4.25 -9.25 4.25 -9.09375 C 4.25 -9.0625 4.25 -8.96875 4.1875 -8.765625 L 2.265625 -1.0625 C 2.125 -0.5625 2.109375 -0.421875 1.109375 -0.421875 C 0.828125 -0.421875 0.6875 -0.421875 0.6875 -0.15625 C 0.6875 0 0.765625 0 1.0625 0 L 5.96875 0 C 8.15625 0 9.84375 -1.65625 9.84375 -3.109375 C 9.84375 -4.28125 8.8125 -5 7.65625 -5.109375 Z M 5.625 -0.421875 L 3.6875 -0.421875 C 3.5 -0.421875 3.46875 -0.421875 3.375 -0.421875 C 3.21875 -0.4375 3.203125 -0.46875 3.203125 -0.59375 C 3.203125 -0.6875 3.234375 -0.765625 3.265625 -0.90625 L 4.265625 -4.9375 L 6.953125 -4.9375 C 8.640625 -4.9375 8.640625 -3.359375 8.640625 -3.25 C 8.640625 -1.875 7.40625 -0.421875 5.625 -0.421875 Z M 5.625 -0.421875 "/>
</g>
<g id="glyph-1-0">
<path d="M 4.359375 -0.0625 C 5.890625 -0.640625 7.359375 -2.421875 7.359375 -4.328125 C 7.359375 -5.9375 6.296875 -7 4.8125 -7 C 2.671875 -7 0.484375 -4.75 0.484375 -2.4375 C 0.484375 -0.78125 1.59375 0.21875 3.03125 0.21875 C 3.28125 0.21875 3.625 0.171875 4 0.0625 C 3.96875 0.6875 3.96875 0.703125 3.96875 0.828125 C 3.96875 1.15625 3.96875 1.921875 4.796875 1.921875 C 5.96875 1.921875 6.453125 0.109375 6.453125 0 C 6.453125 -0.0625 6.375 -0.09375 6.34375 -0.09375 C 6.265625 -0.09375 6.234375 -0.046875 6.21875 0.015625 C 5.984375 0.71875 5.40625 0.96875 5.0625 0.96875 C 4.59375 0.96875 4.453125 0.703125 4.359375 -0.0625 Z M 2.46875 -0.140625 C 1.703125 -0.453125 1.359375 -1.21875 1.359375 -2.109375 C 1.359375 -2.796875 1.625 -4.21875 2.375 -5.28125 C 3.09375 -6.296875 4.03125 -6.75 4.765625 -6.75 C 5.75 -6.75 6.484375 -5.984375 6.484375 -4.65625 C 6.484375 -3.65625 5.96875 -1.328125 4.296875 -0.390625 C 4.25 -0.75 4.15625 -1.46875 3.421875 -1.46875 C 2.90625 -1.46875 2.421875 -0.96875 2.421875 -0.453125 C 2.421875 -0.265625 2.46875 -0.15625 2.46875 -0.140625 Z M 3.09375 -0.03125 C 2.953125 -0.03125 2.640625 -0.03125 2.640625 -0.453125 C 2.640625 -0.859375 3.015625 -1.25 3.421875 -1.25 C 3.84375 -1.25 4.03125 -1.015625 4.03125 -0.40625 C 4.03125 -0.265625 4.03125 -0.25 3.921875 -0.203125 C 3.671875 -0.09375 3.375 -0.03125 3.09375 -0.03125 Z M 3.09375 -0.03125 "/>
</g>
<g id="glyph-1-1">
<path d="M 2.828125 -6.21875 C 2.828125 -6.40625 2.6875 -6.5625 2.453125 -6.5625 C 2.1875 -6.5625 1.921875 -6.3125 1.921875 -6.046875 C 1.921875 -5.859375 2.0625 -5.6875 2.296875 -5.6875 C 2.53125 -5.6875 2.828125 -5.90625 2.828125 -6.21875 Z M 2.0625 -2.46875 C 2.1875 -2.765625 2.1875 -2.78125 2.28125 -3.046875 C 2.359375 -3.25 2.421875 -3.390625 2.421875 -3.578125 C 2.421875 -4.03125 2.09375 -4.390625 1.59375 -4.390625 C 0.671875 -4.390625 0.28125 -2.953125 0.28125 -2.859375 C 0.28125 -2.765625 0.390625 -2.765625 0.40625 -2.765625 C 0.5 -2.765625 0.515625 -2.78125 0.5625 -2.9375 C 0.828125 -3.875 1.234375 -4.171875 1.5625 -4.171875 C 1.65625 -4.171875 1.8125 -4.171875 1.8125 -3.859375 C 1.8125 -3.640625 1.75 -3.4375 1.703125 -3.34375 C 1.625 -3.078125 1.1875 -1.921875 1.03125 -1.5 C 0.921875 -1.25 0.796875 -0.921875 0.796875 -0.703125 C 0.796875 -0.234375 1.140625 0.109375 1.609375 0.109375 C 2.546875 0.109375 2.90625 -1.328125 2.90625 -1.421875 C 2.90625 -1.515625 2.828125 -1.515625 2.796875 -1.515625 C 2.6875 -1.515625 2.6875 -1.484375 2.640625 -1.34375 C 2.46875 -0.71875 2.140625 -0.109375 1.625 -0.109375 C 1.453125 -0.109375 1.390625 -0.203125 1.390625 -0.4375 C 1.390625 -0.6875 1.453125 -0.828125 1.671875 -1.4375 Z M 2.0625 -2.46875 "/>
</g>
<g id="glyph-1-2">
<path d="M 3.9375 -6.21875 C 3.9375 -6.40625 3.8125 -6.5625 3.5625 -6.5625 C 3.34375 -6.5625 3.046875 -6.34375 3.046875 -6.046875 C 3.046875 -5.84375 3.1875 -5.6875 3.40625 -5.6875 C 3.671875 -5.6875 3.9375 -5.9375 3.9375 -6.21875 Z M 1.953125 0.5 C 1.765625 1.25 1.28125 1.8125 0.71875 1.8125 C 0.671875 1.8125 0.515625 1.8125 0.34375 1.734375 C 0.640625 1.65625 0.78125 1.40625 0.78125 1.203125 C 0.78125 1.046875 0.671875 0.859375 0.40625 0.859375 C 0.15625 0.859375 -0.125 1.0625 -0.125 1.421875 C -0.125 1.8125 0.265625 2.03125 0.75 2.03125 C 1.4375 2.03125 2.359375 1.515625 2.609375 0.53125 L 3.53125 -3.109375 C 3.578125 -3.3125 3.578125 -3.453125 3.578125 -3.484375 C 3.578125 -4.046875 3.15625 -4.390625 2.65625 -4.390625 C 1.65625 -4.390625 1.078125 -2.953125 1.078125 -2.859375 C 1.078125 -2.765625 1.1875 -2.765625 1.203125 -2.765625 C 1.296875 -2.765625 1.296875 -2.765625 1.375 -2.96875 C 1.625 -3.5625 2.09375 -4.171875 2.640625 -4.171875 C 2.765625 -4.171875 2.953125 -4.140625 2.953125 -3.71875 C 2.953125 -3.484375 2.921875 -3.375 2.875 -3.203125 Z M 1.953125 0.5 "/>
</g>
<g id="glyph-1-3">
<path d="M 0.875 -0.59375 C 0.84375 -0.4375 0.78125 -0.203125 0.78125 -0.15625 C 0.78125 0.015625 0.921875 0.109375 1.078125 0.109375 C 1.1875 0.109375 1.375 0.03125 1.4375 -0.171875 C 1.453125 -0.1875 1.5625 -0.65625 1.625 -0.90625 L 1.84375 -1.796875 C 1.90625 -2.015625 1.96875 -2.234375 2.015625 -2.46875 C 2.0625 -2.640625 2.140625 -2.921875 2.140625 -2.96875 C 2.296875 -3.265625 2.828125 -4.171875 3.765625 -4.171875 C 4.21875 -4.171875 4.296875 -3.8125 4.296875 -3.484375 C 4.296875 -3.234375 4.234375 -2.953125 4.15625 -2.65625 L 3.875 -1.5 L 3.671875 -0.75 C 3.640625 -0.546875 3.546875 -0.203125 3.546875 -0.15625 C 3.546875 0.015625 3.6875 0.109375 3.828125 0.109375 C 4.140625 0.109375 4.203125 -0.140625 4.28125 -0.453125 C 4.421875 -1.015625 4.796875 -2.46875 4.875 -2.859375 C 4.90625 -2.984375 5.4375 -4.171875 6.515625 -4.171875 C 6.953125 -4.171875 7.0625 -3.828125 7.0625 -3.484375 C 7.0625 -2.90625 6.640625 -1.78125 6.4375 -1.25 C 6.34375 -1.015625 6.3125 -0.90625 6.3125 -0.703125 C 6.3125 -0.234375 6.65625 0.109375 7.125 0.109375 C 8.0625 0.109375 8.421875 -1.34375 8.421875 -1.421875 C 8.421875 -1.515625 8.34375 -1.515625 8.3125 -1.515625 C 8.203125 -1.515625 8.203125 -1.484375 8.15625 -1.34375 C 8.015625 -0.8125 7.6875 -0.109375 7.140625 -0.109375 C 6.96875 -0.109375 6.90625 -0.203125 6.90625 -0.4375 C 6.90625 -0.6875 7 -0.921875 7.078125 -1.140625 C 7.28125 -1.65625 7.6875 -2.765625 7.6875 -3.328125 C 7.6875 -3.96875 7.296875 -4.390625 6.546875 -4.390625 C 5.796875 -4.390625 5.296875 -3.953125 4.921875 -3.421875 C 4.921875 -3.5625 4.890625 -3.890625 4.609375 -4.140625 C 4.359375 -4.34375 4.046875 -4.390625 3.796875 -4.390625 C 2.90625 -4.390625 2.421875 -3.75 2.25 -3.53125 C 2.203125 -4.09375 1.78125 -4.390625 1.328125 -4.390625 C 0.875 -4.390625 0.6875 -4 0.59375 -3.828125 C 0.421875 -3.484375 0.28125 -2.890625 0.28125 -2.859375 C 0.28125 -2.765625 0.390625 -2.765625 0.40625 -2.765625 C 0.5 -2.765625 0.515625 -2.765625 0.578125 -2.984375 C 0.75 -3.703125 0.9375 -4.171875 1.296875 -4.171875 C 1.453125 -4.171875 1.609375 -4.09375 1.609375 -3.71875 C 1.609375 -3.515625 1.578125 -3.40625 1.453125 -2.875 Z M 0.875 -0.59375 "/>
</g>
<g id="glyph-1-4">
<path d="M 3.703125 -3.75 C 3.53125 -4.125 3.234375 -4.390625 2.796875 -4.390625 C 1.625 -4.390625 0.390625 -2.9375 0.390625 -1.484375 C 0.390625 -0.546875 0.9375 0.109375 1.71875 0.109375 C 1.921875 0.109375 2.421875 0.0625 3.015625 -0.640625 C 3.09375 -0.21875 3.4375 0.109375 3.921875 0.109375 C 4.265625 0.109375 4.484375 -0.125 4.65625 -0.4375 C 4.8125 -0.796875 4.953125 -1.40625 4.953125 -1.421875 C 4.953125 -1.515625 4.859375 -1.515625 4.828125 -1.515625 C 4.734375 -1.515625 4.71875 -1.484375 4.6875 -1.34375 C 4.515625 -0.703125 4.34375 -0.109375 3.9375 -0.109375 C 3.671875 -0.109375 3.640625 -0.375 3.640625 -0.5625 C 3.640625 -0.78125 3.65625 -0.859375 3.765625 -1.296875 C 3.875 -1.71875 3.890625 -1.8125 3.984375 -2.203125 L 4.34375 -3.59375 C 4.40625 -3.859375 4.40625 -3.890625 4.40625 -3.921875 C 4.40625 -4.09375 4.296875 -4.1875 4.125 -4.1875 C 3.890625 -4.1875 3.734375 -3.96875 3.703125 -3.75 Z M 3.0625 -1.1875 C 3.015625 -1 3.015625 -0.984375 2.859375 -0.8125 C 2.421875 -0.265625 2.015625 -0.109375 1.734375 -0.109375 C 1.25 -0.109375 1.109375 -0.65625 1.109375 -1.046875 C 1.109375 -1.546875 1.421875 -2.765625 1.65625 -3.21875 C 1.953125 -3.8125 2.40625 -4.171875 2.796875 -4.171875 C 3.453125 -4.171875 3.59375 -3.359375 3.59375 -3.296875 C 3.59375 -3.234375 3.5625 -3.1875 3.5625 -3.125 Z M 3.0625 -1.1875 "/>
</g>
<g id="glyph-1-5">
<path d="M 3.3125 -3 C 3.375 -3.265625 3.609375 -4.171875 4.296875 -4.171875 C 4.359375 -4.171875 4.59375 -4.171875 4.796875 -4.046875 C 4.515625 -4 4.328125 -3.75 4.328125 -3.515625 C 4.328125 -3.34375 4.4375 -3.15625 4.703125 -3.15625 C 4.921875 -3.15625 5.234375 -3.34375 5.234375 -3.734375 C 5.234375 -4.25 4.65625 -4.390625 4.3125 -4.390625 C 3.734375 -4.390625 3.390625 -3.859375 3.265625 -3.640625 C 3.015625 -4.296875 2.484375 -4.390625 2.203125 -4.390625 C 1.15625 -4.390625 0.59375 -3.109375 0.59375 -2.859375 C 0.59375 -2.765625 0.703125 -2.765625 0.71875 -2.765625 C 0.796875 -2.765625 0.828125 -2.78125 0.84375 -2.875 C 1.1875 -3.921875 1.84375 -4.171875 2.171875 -4.171875 C 2.359375 -4.171875 2.71875 -4.078125 2.71875 -3.515625 C 2.71875 -3.203125 2.546875 -2.53125 2.171875 -1.140625 C 2.015625 -0.53125 1.671875 -0.109375 1.234375 -0.109375 C 1.171875 -0.109375 0.9375 -0.109375 0.734375 -0.234375 C 0.984375 -0.28125 1.203125 -0.5 1.203125 -0.78125 C 1.203125 -1.046875 0.984375 -1.125 0.828125 -1.125 C 0.53125 -1.125 0.28125 -0.859375 0.28125 -0.546875 C 0.28125 -0.09375 0.78125 0.109375 1.21875 0.109375 C 1.875 0.109375 2.234375 -0.59375 2.265625 -0.640625 C 2.390625 -0.28125 2.75 0.109375 3.34375 0.109375 C 4.359375 0.109375 4.921875 -1.171875 4.921875 -1.421875 C 4.921875 -1.515625 4.84375 -1.515625 4.8125 -1.515625 C 4.71875 -1.515625 4.703125 -1.484375 4.6875 -1.40625 C 4.359375 -0.34375 3.671875 -0.109375 3.359375 -0.109375 C 2.96875 -0.109375 2.8125 -0.421875 2.8125 -0.765625 C 2.8125 -0.984375 2.875 -1.203125 2.984375 -1.640625 Z M 3.3125 -3 "/>
</g>
<g id="glyph-1-6">
<path d="M 0.875 -0.59375 C 0.84375 -0.4375 0.78125 -0.203125 0.78125 -0.15625 C 0.78125 0.015625 0.921875 0.109375 1.078125 0.109375 C 1.1875 0.109375 1.375 0.03125 1.4375 -0.171875 C 1.453125 -0.1875 1.5625 -0.65625 1.625 -0.90625 L 1.84375 -1.796875 C 1.90625 -2.015625 1.96875 -2.234375 2.015625 -2.46875 C 2.0625 -2.640625 2.140625 -2.921875 2.140625 -2.96875 C 2.296875 -3.265625 2.828125 -4.171875 3.765625 -4.171875 C 4.21875 -4.171875 4.296875 -3.8125 4.296875 -3.484375 C 4.296875 -2.859375 3.8125 -1.59375 3.65625 -1.15625 C 3.5625 -0.9375 3.5625 -0.8125 3.5625 -0.703125 C 3.5625 -0.234375 3.90625 0.109375 4.375 0.109375 C 5.3125 0.109375 5.671875 -1.34375 5.671875 -1.421875 C 5.671875 -1.515625 5.578125 -1.515625 5.5625 -1.515625 C 5.453125 -1.515625 5.453125 -1.484375 5.40625 -1.34375 C 5.203125 -0.671875 4.875 -0.109375 4.390625 -0.109375 C 4.21875 -0.109375 4.15625 -0.203125 4.15625 -0.4375 C 4.15625 -0.6875 4.25 -0.921875 4.328125 -1.140625 C 4.515625 -1.671875 4.9375 -2.765625 4.9375 -3.328125 C 4.9375 -4 4.515625 -4.390625 3.796875 -4.390625 C 2.90625 -4.390625 2.421875 -3.75 2.25 -3.53125 C 2.203125 -4.078125 1.78125 -4.390625 1.328125 -4.390625 C 0.875 -4.390625 0.6875 -4 0.59375 -3.828125 C 0.421875 -3.484375 0.28125 -2.90625 0.28125 -2.859375 C 0.28125 -2.765625 0.390625 -2.765625 0.40625 -2.765625 C 0.5 -2.765625 0.515625 -2.765625 0.578125 -2.984375 C 0.75 -3.703125 0.9375 -4.171875 1.296875 -4.171875 C 1.5 -4.171875 1.609375 -4.046875 1.609375 -3.71875 C 1.609375 -3.515625 1.578125 -3.40625 1.453125 -2.875 Z M 0.875 -0.59375 "/>
</g>
<g id="glyph-1-7">
<path d="M 4.65625 -2.71875 C 4.65625 -3.75 3.96875 -4.390625 3.078125 -4.390625 C 1.734375 -4.390625 0.40625 -2.984375 0.40625 -1.5625 C 0.40625 -0.59375 1.078125 0.109375 2 0.109375 C 3.3125 0.109375 4.65625 -1.265625 4.65625 -2.71875 Z M 2 -0.109375 C 1.578125 -0.109375 1.140625 -0.421875 1.140625 -1.1875 C 1.140625 -1.671875 1.40625 -2.75 1.71875 -3.265625 C 2.21875 -4.03125 2.78125 -4.171875 3.0625 -4.171875 C 3.640625 -4.171875 3.9375 -3.703125 3.9375 -3.09375 C 3.9375 -2.71875 3.734375 -1.671875 3.359375 -1.03125 C 3.015625 -0.453125 2.46875 -0.109375 2 -0.109375 Z M 2 -0.109375 "/>
</g>
<g id="glyph-1-8">
<path d="M 3.015625 -3.140625 L 4.703125 -3.140625 C 6.109375 -3.140625 7.5 -4.171875 7.5 -5.28125 C 7.5 -6.046875 6.84375 -6.78125 5.53125 -6.78125 L 2.3125 -6.78125 C 2.125 -6.78125 2.015625 -6.78125 2.015625 -6.59375 C 2.015625 -6.484375 2.109375 -6.484375 2.3125 -6.484375 C 2.4375 -6.484375 2.609375 -6.46875 2.734375 -6.453125 C 2.890625 -6.4375 2.953125 -6.40625 2.953125 -6.296875 C 2.953125 -6.265625 2.9375 -6.234375 2.90625 -6.109375 L 1.578125 -0.78125 C 1.484375 -0.390625 1.453125 -0.3125 0.671875 -0.3125 C 0.5 -0.3125 0.390625 -0.3125 0.390625 -0.125 C 0.390625 0 0.515625 0 0.546875 0 C 0.828125 0 1.53125 -0.03125 1.8125 -0.03125 C 2.015625 -0.03125 2.234375 -0.015625 2.4375 -0.015625 C 2.65625 -0.015625 2.875 0 3.09375 0 C 3.15625 0 3.296875 0 3.296875 -0.203125 C 3.296875 -0.3125 3.203125 -0.3125 3.015625 -0.3125 C 2.640625 -0.3125 2.359375 -0.3125 2.359375 -0.484375 C 2.359375 -0.546875 2.390625 -0.59375 2.390625 -0.65625 Z M 3.734375 -6.109375 C 3.8125 -6.453125 3.828125 -6.484375 4.265625 -6.484375 L 5.21875 -6.484375 C 6.046875 -6.484375 6.5625 -6.21875 6.5625 -5.53125 C 6.5625 -5.140625 6.375 -4.28125 5.984375 -3.921875 C 5.484375 -3.484375 4.890625 -3.40625 4.453125 -3.40625 L 3.046875 -3.40625 Z M 3.734375 -6.109375 "/>
</g>
<g id="glyph-2-0">
<path d="M 2.484375 -8.8125 C 2.484375 -9.1875 2.1875 -9.515625 1.796875 -9.515625 C 1.421875 -9.515625 1.109375 -9.21875 1.109375 -8.828125 C 1.109375 -8.40625 1.453125 -8.125 1.796875 -8.125 C 2.234375 -8.125 2.484375 -8.5 2.484375 -8.8125 Z M 0.515625 -6.15625 L 0.515625 -5.734375 C 1.4375 -5.734375 1.5625 -5.65625 1.5625 -4.953125 L 1.5625 -1.0625 C 1.5625 -0.421875 1.40625 -0.421875 0.46875 -0.421875 L 0.46875 0 C 0.875 -0.03125 1.5625 -0.03125 1.96875 -0.03125 C 2.125 -0.03125 2.96875 -0.03125 3.453125 0 L 3.453125 -0.421875 C 2.515625 -0.421875 2.46875 -0.484375 2.46875 -1.046875 L 2.46875 -6.3125 Z M 0.515625 -6.15625 "/>
</g>
<g id="glyph-2-1">
<path d="M 2.90625 -8.8125 C 2.90625 -9.25 2.5625 -9.515625 2.21875 -9.515625 C 1.8125 -9.515625 1.515625 -9.203125 1.515625 -8.8125 C 1.515625 -8.4375 1.828125 -8.125 2.203125 -8.125 C 2.640625 -8.125 2.90625 -8.46875 2.90625 -8.8125 Z M 0.796875 -6.15625 L 0.796875 -5.734375 C 1.875 -5.734375 2 -5.640625 2 -4.9375 L 2 0.78125 C 2 1.578125 1.84375 2.640625 1.015625 2.640625 C 0.984375 2.640625 0.546875 2.640625 0.21875 2.4375 C 0.59375 2.359375 0.703125 2.09375 0.703125 1.84375 C 0.703125 1.515625 0.453125 1.265625 0.109375 1.265625 C -0.25 1.265625 -0.484375 1.515625 -0.484375 1.859375 C -0.484375 2.546875 0.28125 2.921875 1.03125 2.921875 C 2.0625 2.921875 2.90625 2.03125 2.90625 0.734375 L 2.90625 -6.3125 Z M 0.796875 -6.15625 "/>
</g>
<g id="glyph-2-2">
<path d="M 5.703125 -3.3125 L 9.65625 -3.3125 C 9.859375 -3.3125 10.125 -3.3125 10.125 -3.5625 C 10.125 -3.828125 9.875 -3.828125 9.65625 -3.828125 L 5.703125 -3.828125 L 5.703125 -7.78125 C 5.703125 -7.984375 5.703125 -8.25 5.453125 -8.25 C 5.1875 -8.25 5.1875 -8 5.1875 -7.78125 L 5.1875 -3.828125 L 1.234375 -3.828125 C 1.03125 -3.828125 0.765625 -3.828125 0.765625 -3.578125 C 0.765625 -3.3125 1.015625 -3.3125 1.234375 -3.3125 L 5.1875 -3.3125 L 5.1875 0.640625 C 5.1875 0.84375 5.1875 1.109375 5.4375 1.109375 C 5.703125 1.109375 5.703125 0.859375 5.703125 0.640625 Z M 5.703125 -3.3125 "/>
</g>
<g id="glyph-2-3">
<path d="M 9.65625 -4.640625 C 9.859375 -4.640625 10.125 -4.640625 10.125 -4.890625 C 10.125 -5.171875 9.875 -5.171875 9.65625 -5.171875 L 1.234375 -5.171875 C 1.03125 -5.171875 0.765625 -5.171875 0.765625 -4.90625 C 0.765625 -4.640625 1.015625 -4.640625 1.234375 -4.640625 Z M 9.65625 -1.96875 C 9.859375 -1.96875 10.125 -1.96875 10.125 -2.234375 C 10.125 -2.5 9.875 -2.5 9.65625 -2.5 L 1.234375 -2.5 C 1.03125 -2.5 0.765625 -2.5 0.765625 -2.25 C 0.765625 -1.96875 1.015625 -1.96875 1.234375 -1.96875 Z M 9.65625 -1.96875 "/>
</g>
<g id="glyph-2-4">
<path d="M 6.40625 -4.578125 C 6.40625 -5.765625 6.34375 -6.921875 5.828125 -8.015625 C 5.234375 -9.203125 4.203125 -9.515625 3.5 -9.515625 C 2.671875 -9.515625 1.65625 -9.109375 1.125 -7.921875 C 0.734375 -7.015625 0.59375 -6.125 0.59375 -4.578125 C 0.59375 -3.1875 0.6875 -2.140625 1.203125 -1.125 C 1.765625 -0.046875 2.75 0.296875 3.5 0.296875 C 4.734375 0.296875 5.453125 -0.4375 5.875 -1.28125 C 6.390625 -2.34375 6.40625 -3.75 6.40625 -4.578125 Z M 3.5 0.015625 C 3.03125 0.015625 2.109375 -0.25 1.828125 -1.796875 C 1.671875 -2.65625 1.671875 -3.75 1.671875 -4.75 C 1.671875 -5.921875 1.671875 -6.984375 1.90625 -7.828125 C 2.140625 -8.78125 2.875 -9.234375 3.5 -9.234375 C 4.03125 -9.234375 4.859375 -8.90625 5.140625 -7.671875 C 5.328125 -6.859375 5.328125 -5.71875 5.328125 -4.75 C 5.328125 -3.796875 5.328125 -2.703125 5.171875 -1.828125 C 4.890625 -0.25 4 0.015625 3.5 0.015625 Z M 3.5 0.015625 "/>
</g>
<g id="glyph-3-0">
<path d="M 5.5625 -3.984375 L 2.703125 -6.828125 C 2.53125 -7 2.5 -7.03125 2.390625 -7.03125 C 2.25 -7.03125 2.109375 -6.90625 2.109375 -6.734375 C 2.109375 -6.640625 2.125 -6.609375 2.296875 -6.453125 L 5.15625 -3.578125 L 2.296875 -0.703125 C 2.125 -0.546875 2.109375 -0.515625 2.109375 -0.421875 C 2.109375 -0.25 2.25 -0.125 2.390625 -0.125 C 2.5 -0.125 2.53125 -0.15625 2.703125 -0.328125 L 5.546875 -3.171875 L 8.515625 -0.21875 C 8.546875 -0.203125 8.640625 -0.125 8.734375 -0.125 C 8.90625 -0.125 9.015625 -0.25 9.015625 -0.421875 C 9.015625 -0.4375 9.015625 -0.5 8.96875 -0.578125 C 8.953125 -0.59375 6.6875 -2.84375 5.96875 -3.578125 L 8.59375 -6.203125 C 8.65625 -6.28125 8.875 -6.46875 8.953125 -6.5625 C 8.953125 -6.578125 9.015625 -6.640625 9.015625 -6.734375 C 9.015625 -6.90625 8.90625 -7.03125 8.734375 -7.03125 C 8.609375 -7.03125 8.5625 -6.96875 8.40625 -6.8125 Z M 5.5625 -3.984375 "/>
</g>
<g id="glyph-3-1">
<path d="M 9.4375 -3.296875 C 9.671875 -3.296875 9.9375 -3.296875 9.9375 -3.578125 C 9.9375 -3.859375 9.671875 -3.859375 9.4375 -3.859375 L 1.6875 -3.859375 C 1.453125 -3.859375 1.1875 -3.859375 1.1875 -3.578125 C 1.1875 -3.296875 1.453125 -3.296875 1.6875 -3.296875 Z M 9.4375 -3.296875 "/>
</g>
</g>
</defs>
<path fill="none" stroke-width="1.2" stroke-linecap="butt" stroke-linejoin="round" stroke="rgb(0%, 0%, 0%)" stroke-opacity="1" stroke-miterlimit="10" d="M 420.000413 735.998863 C 420.000413 744.83758 412.837059 752.000934 403.998342 752.000934 C 395.16354 752.000934 388.000186 744.83758 388.000186 735.998863 C 388.000186 727.164061 395.16354 720.000707 403.998342 720.000707 C 412.837059 720.000707 420.000413 727.164061 420.000413 735.998863 " transform="matrix(0.997918, 0, 0, -0.997918, -78.571168, 776.899902)"/>
<path fill="none" stroke-width="1.2" stroke-linecap="butt" stroke-linejoin="round" stroke="rgb(0%, 0%, 0%)" stroke-opacity="1" stroke-miterlimit="10" d="M 420.000413 720.000707 C 420.000413 728.83551 412.837059 735.998863 403.998342 735.998863 C 395.16354 735.998863 388.000186 728.83551 388.000186 720.000707 C 388.000186 711.16199 395.16354 703.998636 403.998342 703.998636 C 412.837059 703.998636 420.000413 711.16199 420.000413 720.000707 " transform="matrix(0.997918, 0, 0, -0.997918, -78.571168, 776.899902)"/>
<path fill="none" stroke-width="1.2" stroke-linecap="butt" stroke-linejoin="round" stroke="rgb(0%, 0%, 0%)" stroke-opacity="1" stroke-miterlimit="10" d="M 403.998342 752.000934 L 403.998342 767.99909 " transform="matrix(0.997918, 0, 0, -0.997918, -78.571168, 776.899902)"/>
<path fill="none" stroke-width="1.2" stroke-linecap="butt" stroke-linejoin="round" stroke="rgb(0%, 0%, 0%)" stroke-opacity="1" stroke-miterlimit="10" d="M 388.000186 767.99909 L 420.000413 767.99909 " transform="matrix(0.997918, 0, 0, -0.997918, -78.571168, 776.899902)"/>
<path fill="none" stroke-width="1.2" stroke-linecap="butt" stroke-linejoin="round" stroke="rgb(0%, 0%, 0%)" stroke-opacity="1" stroke-miterlimit="10" d="M 403.998342 703.998636 L 403.998342 688.00048 " transform="matrix(0.997918, 0, 0, -0.997918, -78.571168, 776.899902)"/>
<path fill="none" stroke-width="1.2" stroke-linecap="butt" stroke-linejoin="round" stroke="rgb(0%, 0%, 0%)" stroke-opacity="1" stroke-miterlimit="10" d="M 388.000186 688.00048 L 420.000413 688.00048 " transform="matrix(0.997918, 0, 0, -0.997918, -78.571168, 776.899902)"/>
<path fill="none" stroke-width="0.8" stroke-linecap="butt" stroke-linejoin="round" stroke="rgb(0%, 0%, 0%)" stroke-opacity="1" stroke-miterlimit="10" d="M 411.999378 660.00077 L 411.999378 688.00048 " transform="matrix(0.997918, 0, 0, -0.997918, -78.571168, 776.899902)"/>
<path fill-rule="evenodd" fill="rgb(0%, 0%, 0%)" fill-opacity="1" stroke-width="0.8" stroke-linecap="butt" stroke-linejoin="round" stroke="rgb(0%, 0%, 0%)" stroke-opacity="1" stroke-miterlimit="10" d="M 411.999378 688.00048 L 409.670309 681.001531 L 414.332361 681.001531 Z M 411.999378 688.00048 " transform="matrix(0.997918, 0, 0, -0.997918, -78.571168, 776.899902)"/>
<g fill="rgb(0%, 0%, 0%)" fill-opacity="1">
<use xlink:href="#glyph-0-0" x="308.620908" y="126.258546"/>
</g>
<g fill="rgb(0%, 0%, 0%)" fill-opacity="1">
<use xlink:href="#glyph-1-0" x="314.803009" y="128.406065"/>
<use xlink:href="#glyph-1-1" x="322.663039" y="128.406065"/>
</g>
<g fill="rgb(0%, 0%, 0%)" fill-opacity="1">
<use xlink:href="#glyph-0-1" x="280.679212" y="94.322185"/>
</g>
<g fill="rgb(0%, 0%, 0%)" fill-opacity="1">
<use xlink:href="#glyph-1-1" x="288.85116" y="96.469704"/>
</g>
<g fill="rgb(0%, 0%, 0%)" fill-opacity="1">
<use xlink:href="#glyph-0-1" x="280.679212" y="14.491761"/>
</g>
<g fill="rgb(0%, 0%, 0%)" fill-opacity="1">
<use xlink:href="#glyph-1-2" x="288.85116" y="16.63928"/>
</g>
<g fill="rgb(0%, 0%, 0%)" fill-opacity="1">
<use xlink:href="#glyph-2-0" x="348.537617" y="90.33251"/>
</g>
<g fill="rgb(0%, 0%, 0%)" fill-opacity="1">
<use xlink:href="#glyph-2-1" x="348.537617" y="10.499092"/>
</g>
<path fill="none" stroke-width="0.8" stroke-linecap="butt" stroke-linejoin="round" stroke="rgb(0%, 0%, 0%)" stroke-opacity="1" stroke-miterlimit="10" d="M 103.998659 656.000253 L 139.999404 656.000253 " transform="matrix(0.997918, 0, 0, -0.997918, -78.571168, 776.899902)"/>
<path fill-rule="evenodd" fill="rgb(0%, 0%, 0%)" fill-opacity="1" stroke-width="0.8" stroke-linecap="butt" stroke-linejoin="round" stroke="rgb(0%, 0%, 0%)" stroke-opacity="1" stroke-miterlimit="10" d="M 139.999404 656.000253 L 133.000455 658.329321 L 133.000455 653.66727 Z M 139.999404 656.000253 " transform="matrix(0.997918, 0, 0, -0.997918, -78.571168, 776.899902)"/>
<path fill="none" stroke-width="0.8" stroke-linecap="butt" stroke-linejoin="round" stroke="rgb(0%, 0%, 0%)" stroke-opacity="1" stroke-miterlimit="10" d="M 152.000957 656.000253 C 152.000957 659.31575 149.315678 662.001029 146.000181 662.001029 C 142.684683 662.001029 139.999404 659.31575 139.999404 656.000253 C 139.999404 652.684755 142.684683 649.999476 146.000181 649.999476 C 149.315678 649.999476 152.000957 652.684755 152.000957 656.000253 " transform="matrix(0.997918, 0, 0, -0.997918, -78.571168, 776.899902)"/>
<path fill="none" stroke-width="0.8" stroke-linecap="butt" stroke-linejoin="round" stroke="rgb(0%, 0%, 0%)" stroke-opacity="1" stroke-miterlimit="10" d="M 180.000667 668.001806 L 180.000667 643.9987 L 220.001929 643.9987 L 220.001929 668.001806 Z M 180.000667 668.001806 " transform="matrix(0.997918, 0, 0, -0.997918, -78.571168, 776.899902)"/>
<path fill="none" stroke-width="0.8" stroke-linecap="butt" stroke-linejoin="round" stroke="rgb(0%, 0%, 0%)" stroke-opacity="1" stroke-miterlimit="10" d="M 152.000957 656.000253 L 180.000667 656.000253 " transform="matrix(0.997918, 0, 0, -0.997918, -78.571168, 776.899902)"/>
<path fill-rule="evenodd" fill="rgb(0%, 0%, 0%)" fill-opacity="1" stroke-width="0.8" stroke-linecap="butt" stroke-linejoin="round" stroke="rgb(0%, 0%, 0%)" stroke-opacity="1" stroke-miterlimit="10" d="M 180.000667 656.000253 L 173.001718 658.329321 L 173.001718 653.66727 Z M 180.000667 656.000253 " transform="matrix(0.997918, 0, 0, -0.997918, -78.571168, 776.899902)"/>
<g fill="rgb(0%, 0%, 0%)" fill-opacity="1">
<use xlink:href="#glyph-0-2" x="117.020706" y="126.257548"/>
</g>
<path fill="none" stroke-width="0.8" stroke-linecap="butt" stroke-linejoin="round" stroke="rgb(0%, 0%, 0%)" stroke-opacity="1" stroke-miterlimit="10" d="M 251.998242 671.998409 L 251.998242 639.998182 L 291.999505 639.998182 L 291.999505 671.998409 Z M 251.998242 671.998409 " transform="matrix(0.997918, 0, 0, -0.997918, -78.571168, 776.899902)"/>
<path fill="none" stroke-width="0.8" stroke-linecap="butt" stroke-linejoin="round" stroke="rgb(0%, 0%, 0%)" stroke-opacity="1" stroke-miterlimit="10" d="M 287.998987 668.001806 L 276.001348 668.001806 L 268.000313 643.9987 L 255.99876 643.9987 " transform="matrix(0.997918, 0, 0, -0.997918, -78.571168, 776.899902)"/>
<g fill="rgb(0%, 0%, 0%)" fill-opacity="1">
<use xlink:href="#glyph-0-3" x="192.862453" y="94.322185"/>
</g>
<g fill="rgb(0%, 0%, 0%)" fill-opacity="1">
<use xlink:href="#glyph-1-3" x="203.51223" y="96.469704"/>
<use xlink:href="#glyph-1-4" x="212.241179" y="96.469704"/>
<use xlink:href="#glyph-1-5" x="217.496444" y="96.469704"/>
</g>
<g fill="rgb(0%, 0%, 0%)" fill-opacity="1">
<use xlink:href="#glyph-0-3" x="164.920756" y="154.197248"/>
</g>
<g fill="rgb(0%, 0%, 0%)" fill-opacity="1">
<use xlink:href="#glyph-1-3" x="175.570534" y="156.344767"/>
<use xlink:href="#glyph-1-1" x="184.299483" y="156.344767"/>
<use xlink:href="#glyph-1-6" x="187.724452" y="156.344767"/>
</g>
<path fill="none" stroke-width="0.8" stroke-linecap="butt" stroke-linejoin="round" stroke="rgb(0%, 0%, 0%)" stroke-opacity="1" stroke-miterlimit="10" d="M 220.001929 656.000253 L 251.998242 656.000253 " transform="matrix(0.997918, 0, 0, -0.997918, -78.571168, 776.899902)"/>
<path fill-rule="evenodd" fill="rgb(0%, 0%, 0%)" fill-opacity="1" stroke-width="0.8" stroke-linecap="butt" stroke-linejoin="round" stroke="rgb(0%, 0%, 0%)" stroke-opacity="1" stroke-miterlimit="10" d="M 251.998242 656.000253 L 244.999293 658.329321 L 244.999293 653.66727 Z M 251.998242 656.000253 " transform="matrix(0.997918, 0, 0, -0.997918, -78.571168, 776.899902)"/>
<path fill="none" stroke-width="0.8" stroke-linecap="butt" stroke-linejoin="round" stroke="rgb(0%, 0%, 0%)" stroke-opacity="1" stroke-miterlimit="10" d="M 291.999505 656.000253 L 319.999214 656.000253 " transform="matrix(0.997918, 0, 0, -0.997918, -78.571168, 776.899902)"/>
<path fill-rule="evenodd" fill="rgb(0%, 0%, 0%)" fill-opacity="1" stroke-width="0.8" stroke-linecap="butt" stroke-linejoin="round" stroke="rgb(0%, 0%, 0%)" stroke-opacity="1" stroke-miterlimit="10" d="M 319.999214 656.000253 L 313.000265 658.329321 L 313.000265 653.66727 Z M 319.999214 656.000253 " transform="matrix(0.997918, 0, 0, -0.997918, -78.571168, 776.899902)"/>
<path fill="none" stroke-width="0.8" stroke-linecap="butt" stroke-linejoin="round" stroke="rgb(0%, 0%, 0%)" stroke-opacity="1" stroke-miterlimit="10" d="M 336.001285 656.000253 C 336.001285 660.419611 332.419608 664.001288 328.000249 664.001288 C 323.580891 664.001288 319.999214 660.419611 319.999214 656.000253 C 319.999214 651.580894 323.580891 647.999217 328.000249 647.999217 C 332.419608 647.999217 336.001285 651.580894 336.001285 656.000253 " transform="matrix(0.997918, 0, 0, -0.997918, -78.571168, 776.899902)"/>
<g fill="rgb(0%, 0%, 0%)" fill-opacity="1">
<use xlink:href="#glyph-3-0" x="242.838172" y="126.251561"/>
</g>
<path fill="none" stroke-width="0.8" stroke-linecap="butt" stroke-linejoin="round" stroke="rgb(0%, 0%, 0%)" stroke-opacity="1" stroke-miterlimit="10" d="M 355.999959 688.00048 L 328.000249 688.00048 L 328.000249 664.001288 " transform="matrix(0.997918, 0, 0, -0.997918, -78.571168, 776.899902)"/>
<path fill-rule="evenodd" fill="rgb(0%, 0%, 0%)" fill-opacity="1" stroke-width="0.8" stroke-linecap="butt" stroke-linejoin="round" stroke="rgb(0%, 0%, 0%)" stroke-opacity="1" stroke-miterlimit="10" d="M 328.000249 664.001288 L 330.329318 671.000237 L 325.667266 671.000237 Z M 328.000249 664.001288 " transform="matrix(0.997918, 0, 0, -0.997918, -78.571168, 776.899902)"/>
<path fill="none" stroke-width="0.8" stroke-linecap="butt" stroke-linejoin="round" stroke="rgb(0%, 0%, 0%)" stroke-opacity="1" stroke-miterlimit="10" d="M 336.001285 656.000253 L 379.999151 656.000253 " transform="matrix(0.997918, 0, 0, -0.997918, -78.571168, 776.899902)"/>
<path fill-rule="evenodd" fill="rgb(0%, 0%, 0%)" fill-opacity="1" stroke-width="0.8" stroke-linecap="butt" stroke-linejoin="round" stroke="rgb(0%, 0%, 0%)" stroke-opacity="1" stroke-miterlimit="10" d="M 379.999151 656.000253 L 373.000202 658.329321 L 373.000202 653.66727 Z M 379.999151 656.000253 " transform="matrix(0.997918, 0, 0, -0.997918, -78.571168, 776.899902)"/>
<path fill="none" stroke-width="0.8" stroke-linecap="butt" stroke-linejoin="round" stroke="rgb(0%, 0%, 0%)" stroke-opacity="1" stroke-miterlimit="10" d="M 355.999959 767.99909 L 147.111871 767.204467 L 146.469909 662.893513 " transform="matrix(0.997918, 0, 0, -0.997918, -78.571168, 776.899902)"/>
<path fill-rule="evenodd" fill="rgb(0%, 0%, 0%)" fill-opacity="1" stroke-width="0.8" stroke-linecap="butt" stroke-linejoin="round" stroke="rgb(0%, 0%, 0%)" stroke-opacity="1" stroke-miterlimit="10" d="M 146.469909 662.893513 L 148.84595 669.876804 L 144.183899 669.904205 Z M 146.469909 662.893513 " transform="matrix(0.997918, 0, 0, -0.997918, -78.571168, 776.899902)"/>
<g fill="rgb(0%, 0%, 0%)" fill-opacity="1">
<use xlink:href="#glyph-3-1" x="73.112326" y="102.301535"/>
</g>
<g fill="rgb(0%, 0%, 0%)" fill-opacity="1">
<use xlink:href="#glyph-2-2" x="41.178959" y="134.234902"/>
</g>
<g fill="rgb(0%, 0%, 0%)" fill-opacity="1">
<use xlink:href="#glyph-0-1" x="1.26225" y="126.263536"/>
</g>
<g fill="rgb(0%, 0%, 0%)" fill-opacity="1">
<use xlink:href="#glyph-1-7" x="12.549697" y="121.068376"/>
</g>
<g fill="rgb(0%, 0%, 0%)" fill-opacity="1">
<use xlink:href="#glyph-1-2" x="9.434198" y="129.80315"/>
</g>
<g fill="rgb(0%, 0%, 0%)" fill-opacity="1">
<use xlink:href="#glyph-0-0" x="351.408626" y="125.616885"/>
</g>
<g fill="rgb(0%, 0%, 0%)" fill-opacity="1">
<use xlink:href="#glyph-1-8" x="357.590727" y="127.764404"/>
</g>
<g fill="rgb(0%, 0%, 0%)" fill-opacity="1">
<use xlink:href="#glyph-1-1" x="365.355315" y="127.764404"/>
</g>
<g fill="rgb(0%, 0%, 0%)" fill-opacity="1">
<use xlink:href="#glyph-2-3" x="373.254043" y="125.616885"/>
</g>
<g fill="rgb(0%, 0%, 0%)" fill-opacity="1">
<use xlink:href="#glyph-2-4" x="388.137297" y="125.616885"/>
</g>
<g fill="rgb(0%, 0%, 0%)" fill-opacity="1">
<use xlink:href="#glyph-0-3" x="148.954073" y="114.282535"/>
</g>
</svg>
