<svg xmlns="http://www.w3.org/2000/svg" viewBox="0 0 1180 330" width="1180" height="330" role="img">
<defs><marker id="arrow" viewBox="0 0 10 10" refX="9" refY="5" markerWidth="7" markerHeight="7" orient="auto-start-reverse"><path d="M 0 1 L 10 5 L 0 9 z" fill="#a8b0bf"/></marker><marker id="arrow-accent" viewBox="0 0 10 10" refX="9" refY="5" markerWidth="7" markerHeight="7" orient="auto-start-reverse"><path d="M 0 1 L 10 5 L 0 9 z" fill="#78aeea"/></marker></defs>
<text x="14" y="67" text-anchor="start" font-family="JetBrains Mono, SFMono-Regular, Menlo, Consolas, monospace" font-size="12" fill="#e5e7eb">&#969; &#8722; 1</text>
<path d="M 70 61 L 103 61" fill="none" stroke="#a8b0bf" stroke-width="1.3" marker-end="url(#arrow)"/>
<circle cx="116" cy="61" r="13" fill="#252a33" stroke="#4a5160" stroke-width="1.2"/>
<path d="M 109.5 61 L 122.5 61 M 116 54.5 L 116 67.5" stroke="#4a5160" stroke-width="1"/>
<text x="95" y="57" text-anchor="middle" font-family="Inter, -apple-system, Segoe UI, Helvetica, Arial, sans-serif" font-size="13" fill="#e5e7eb">&#8722;</text>
<text x="118" y="87" text-anchor="middle" font-family="Inter, -apple-system, Segoe UI, Helvetica, Arial, sans-serif" font-size="13" fill="#e5e7eb">+</text>
<text x="116" y="113" text-anchor="middle" font-family="JetBrains Mono, SFMono-Regular, Menlo, Consolas, monospace" font-size="11" fill="#b8bdc9">LR = Tm</text>
<path d="M 116 99 L 116 74" fill="none" stroke="#a8b0bf" stroke-width="1.3" marker-end="url(#arrow)"/>
<path d="M 129 61.0 L 163 61.0" fill="none" stroke="#a8b0bf" stroke-width="1.3" marker-end="url(#arrow)"/>
<rect x="163" y="34" width="126" height="54" rx="4" fill="#252a33" stroke="#4a5160" stroke-width="1.2"/>
<text x="226.0" y="65.0" text-anchor="middle" font-family="Inter, -apple-system, Segoe UI, Helvetica, Arial, sans-serif" font-size="12" fill="#e5e7eb">Droop 1 / R</text>
<path d="M 289 61 L 329 61" fill="none" stroke="#a8b0bf" stroke-width="1.3" marker-end="url(#arrow)"/>
<rect x="333" y="34" width="96" height="54" rx="4" fill="#252a33" stroke="#4a5160" stroke-width="1.2"/>
<text x="381.0" y="65.0" text-anchor="middle" font-family="Inter, -apple-system, Segoe UI, Helvetica, Arial, sans-serif" font-size="12" fill="#e5e7eb">Min gate</text>
<path d="M 429 61.0 L 463 61.0" fill="none" stroke="#a8b0bf" stroke-width="1.3" marker-end="url(#arrow)"/>
<rect x="463" y="34" width="132" height="54" rx="4" fill="#252a33" stroke="#4a5160" stroke-width="1.2"/>
<text x="529.0" y="57.5" text-anchor="middle" font-family="Inter, -apple-system, Segoe UI, Helvetica, Arial, sans-serif" font-size="12" fill="#e5e7eb">Limiter</text>
<text x="529.0" y="72.5" text-anchor="middle" font-family="Inter, -apple-system, Segoe UI, Helvetica, Arial, sans-serif" font-size="12" fill="#e5e7eb">VMIN, VMAX</text>
<path d="M 595 61.0 L 629 61.0" fill="none" stroke="#a8b0bf" stroke-width="1.3" marker-end="url(#arrow)"/>
<rect x="629" y="34" width="128" height="54" rx="4" fill="#252a33" stroke="#4a5160" stroke-width="1.2"/>
<text x="693.0" y="65.0" text-anchor="middle" font-family="Inter, -apple-system, Segoe UI, Helvetica, Arial, sans-serif" font-size="12" fill="#e5e7eb">Lag 1 / (1 + sT1)</text>
<path d="M 757 61.0 L 791 61.0" fill="none" stroke="#a8b0bf" stroke-width="1.3" marker-end="url(#arrow)"/>
<rect x="791" y="34" width="128" height="54" rx="4" fill="#252a33" stroke="#4a5160" stroke-width="1.2"/>
<text x="855.0" y="65.0" text-anchor="middle" font-family="Inter, -apple-system, Segoe UI, Helvetica, Arial, sans-serif" font-size="12" fill="#e5e7eb">Lag 1 / (1 + sT2)</text>
<text x="941" y="53" text-anchor="middle" font-family="JetBrains Mono, SFMono-Regular, Menlo, Consolas, monospace" font-size="10" fill="#b8bdc9">p3</text>
<path d="M 919 61 L 958 61" fill="none" stroke="#a8b0bf" stroke-width="1.3" marker-end="url(#arrow)"/>
<circle cx="971" cy="61" r="13" fill="#252a33" stroke="#4a5160" stroke-width="1.2"/>
<path d="M 964.5 61 L 977.5 61 M 971 54.5 L 971 67.5" stroke="#4a5160" stroke-width="1"/>
<text x="950" y="57" text-anchor="middle" font-family="Inter, -apple-system, Segoe UI, Helvetica, Arial, sans-serif" font-size="13" fill="#e5e7eb">+</text>
<text x="973" y="87" text-anchor="middle" font-family="Inter, -apple-system, Segoe UI, Helvetica, Arial, sans-serif" font-size="13" fill="#e5e7eb">+</text>
<path d="M 984 61 L 1035 61" fill="none" stroke="#a8b0bf" stroke-width="1.3" marker-end="url(#arrow)"/>
<text x="1011" y="53" text-anchor="middle" font-family="JetBrains Mono, SFMono-Regular, Menlo, Consolas, monospace" font-size="10" fill="#b8bdc9">Pm</text>
<text x="1043" y="66" text-anchor="start" font-family="JetBrains Mono, SFMono-Regular, Menlo, Consolas, monospace" font-size="12" fill="#e5e7eb">Tm = Pm / &#969;</text>
<text x="975" y="123" text-anchor="middle" font-family="JetBrains Mono, SFMono-Regular, Menlo, Consolas, monospace" font-size="11" fill="#b8bdc9">Dt&#183;(&#969; &#8722; 1)</text>
<path d="M 971 109 L 971 74" fill="none" stroke="#a8b0bf" stroke-width="1.3" marker-end="url(#arrow)"/>
<circle cx="905" cy="61" r="2.6" fill="#a8b0bf"/>
<path d="M 905 61 L 905 210" fill="none" stroke="#a8b0bf" stroke-width="1.3"/>
<path d="M 905 210 L 700 210" fill="none" stroke="#a8b0bf" stroke-width="1.3" marker-end="url(#arrow)"/>
<rect x="576" y="188" width="124" height="44" rx="4" fill="#252a33" stroke="#4a5160" stroke-width="1.2"/>
<text x="638.0" y="214.0" text-anchor="middle" font-family="Inter, -apple-system, Segoe UI, Helvetica, Arial, sans-serif" font-size="12" fill="#e5e7eb">Lag 1 / (1 + sT3)</text>
<path d="M 576 210 L 452 210" fill="none" stroke="#a8b0bf" stroke-width="1.3" marker-end="url(#arrow)"/>
<rect x="320" y="188" width="132" height="44" rx="4" fill="#252a33" stroke="#4a5160" stroke-width="1.2"/>
<text x="386.0" y="214.0" text-anchor="middle" font-family="Inter, -apple-system, Segoe UI, Helvetica, Arial, sans-serif" font-size="12" fill="#e5e7eb">AT + KT(AT &#8722; p4)</text>
<path d="M 320 210 L 381 210 L 381 88" fill="none" stroke="#a8b0bf" stroke-width="1.3" marker-end="url(#arrow)"/>
<text x="1168" y="320" text-anchor="end" font-family="Inter, -apple-system, Segoe UI, Helvetica, Arial, sans-serif" font-size="12" fill="#b8bdc9" opacity="0.7">Generated automatically from the RAMSES source. Report an error at github.com/SPS-L/stepss-docs/issues</text>
</svg>
