<svg xmlns="http://www.w3.org/2000/svg" viewBox="0 0 900 330" width="900" height="330" role="img">
<defs><marker id="arrow" viewBox="0 0 10 10" refX="9" refY="5" markerWidth="7" markerHeight="7" orient="auto-start-reverse"><path d="M 0 1 L 10 5 L 0 9 z" fill="#a8b0bf"/></marker><marker id="arrow-accent" viewBox="0 0 10 10" refX="9" refY="5" markerWidth="7" markerHeight="7" orient="auto-start-reverse"><path d="M 0 1 L 10 5 L 0 9 z" fill="#78aeea"/></marker></defs>
<text x="14" y="46" text-anchor="start" font-family="JetBrains Mono, SFMono-Regular, Menlo, Consolas, monospace" font-size="13" fill="#e5e7eb">&#969;1</text>
<path d="M 46 42 L 94 42" fill="none" stroke="#a8b0bf" stroke-width="1.3" marker-end="url(#arrow)"/>
<rect x="98" y="20" width="156" height="44" rx="4" fill="#252a33" stroke="#4a5160" stroke-width="1.2"/>
<text x="176.0" y="46.3" text-anchor="middle" font-family="Inter, -apple-system, Segoe UI, Helvetica, Arial, sans-serif" font-size="13" fill="#e5e7eb">Kwi&#183;(1 &#8722; &#969;1)</text>
<text x="14" y="122" text-anchor="start" font-family="JetBrains Mono, SFMono-Regular, Menlo, Consolas, monospace" font-size="12" fill="#e5e7eb">P0, &#916;P</text>
<path d="M 82 118 L 126 118" fill="none" stroke="#a8b0bf" stroke-width="1.3" marker-end="url(#arrow)"/>
<rect x="130" y="96" width="124" height="44" rx="4" fill="#252a33" stroke="#4a5160" stroke-width="1.2"/>
<text x="192.0" y="122.3" text-anchor="middle" font-family="Inter, -apple-system, Segoe UI, Helvetica, Arial, sans-serif" font-size="13" fill="#e5e7eb">&#916;P / Snom</text>
<path d="M 254 42 L 306 42 L 306 66" fill="none" stroke="#a8b0bf" stroke-width="1.3"/>
<path d="M 254 118 L 306 118 L 306 94" fill="none" stroke="#a8b0bf" stroke-width="1.3"/>
<circle cx="306" cy="80" r="14" fill="#252a33" stroke="#4a5160" stroke-width="1.2"/>
<text x="306" y="85" text-anchor="middle" font-family="Inter, -apple-system, Segoe UI, Helvetica, Arial, sans-serif" font-size="14" fill="#e5e7eb">+</text>
<path d="M 320 80 L 372 80" fill="none" stroke="#a8b0bf" stroke-width="1.3" marker-end="url(#arrow)"/>
<text x="345" y="72" text-anchor="middle" font-family="JetBrains Mono, SFMono-Regular, Menlo, Consolas, monospace" font-size="11" fill="#b8bdc9">N1</text>
<rect x="376" y="58" width="136" height="44" rx="4" fill="#252a33" stroke="#4a5160" stroke-width="1.2"/>
<text x="444.0" y="76.5" text-anchor="middle" font-family="Inter, -apple-system, Segoe UI, Helvetica, Arial, sans-serif" font-size="12" fill="#e5e7eb">Integrator</text>
<text x="444.0" y="91.5" text-anchor="middle" font-family="Inter, -apple-system, Segoe UI, Helvetica, Arial, sans-serif" font-size="12" fill="#e5e7eb">1 / Kip</text>
<path d="M 512 80 L 572 80" fill="none" stroke="#a8b0bf" stroke-width="1.3" marker-end="url(#arrow)"/>
<text x="542" y="72" text-anchor="middle" font-family="JetBrains Mono, SFMono-Regular, Menlo, Consolas, monospace" font-size="11" fill="#b8bdc9">N1a</text>
<circle cx="348" cy="80" r="2.6" fill="#a8b0bf"/>
<path d="M 348 80 L 348 176 L 400 176" fill="none" stroke="#a8b0bf" stroke-width="1.3"/>
<rect x="404" y="154" width="116" height="44" rx="4" fill="#252a33" stroke="#4a5160" stroke-width="1.2"/>
<text x="462.0" y="180.3" text-anchor="middle" font-family="Inter, -apple-system, Segoe UI, Helvetica, Arial, sans-serif" font-size="13" fill="#e5e7eb">Kpp&#183;N1</text>
<path d="M 520 176 L 588 176 L 588 110" fill="none" stroke="#a8b0bf" stroke-width="1.3"/>
<circle cx="588" cy="96" r="14" fill="#252a33" stroke="#4a5160" stroke-width="1.2"/>
<text x="588" y="101" text-anchor="middle" font-family="Inter, -apple-system, Segoe UI, Helvetica, Arial, sans-serif" font-size="14" fill="#e5e7eb">+</text>
<path d="M 572 80 L 588 80 L 588 82" fill="none" stroke="#a8b0bf" stroke-width="1.3"/>
<path d="M 602 96 L 672 96" fill="none" stroke="#a8b0bf" stroke-width="1.3" marker-end="url(#arrow)"/>
<text x="632" y="85" text-anchor="middle" font-family="JetBrains Mono, SFMono-Regular, Menlo, Consolas, monospace" font-size="9" fill="#b8bdc9">idref_unlim</text>
<rect x="676" y="74" width="104" height="44" rx="4" fill="#252a33" stroke="#4a5160" stroke-width="1.2"/>
<text x="728.0" y="100.3" text-anchor="middle" font-family="Inter, -apple-system, Segoe UI, Helvetica, Arial, sans-serif" font-size="13" fill="#e5e7eb">Limiter</text>
<path d="M 780 96 L 816 96" fill="none" stroke="#a8b0bf" stroke-width="1.3" marker-end="url(#arrow)"/>
<text x="824" y="101" text-anchor="start" font-family="JetBrains Mono, SFMono-Regular, Menlo, Consolas, monospace" font-size="12" fill="#e5e7eb">idref</text>
<rect x="608" y="214" width="190" height="56" rx="4" fill="#1d2b3d" stroke="#3f6087" stroke-width="1.2"/>
<text x="703.0" y="246.3" text-anchor="middle" font-family="Inter, -apple-system, Segoe UI, Helvetica, Arial, sans-serif" font-size="13" fill="#e5e7eb">Inner current PI</text>
<path d="M 846 118 L 846 242 L 798 242" fill="none" stroke="#a8b0bf" stroke-width="1.3"/>
<path d="M 798 242 L 798 242" fill="none" stroke="#a8b0bf" stroke-width="1.3" marker-end="url(#arrow)"/>
<path d="M 608 242 L 556 242" fill="none" stroke="#a8b0bf" stroke-width="1.3" marker-end="url(#arrow)"/>
<text x="548" y="247" text-anchor="end" font-family="JetBrains Mono, SFMono-Regular, Menlo, Consolas, monospace" font-size="12" fill="#e5e7eb">vmd</text>
<text x="888" y="320" text-anchor="end" font-family="Inter, -apple-system, Segoe UI, Helvetica, Arial, sans-serif" font-size="12" fill="#b8bdc9" opacity="0.7">Generated automatically from the RAMSES source. Report an error at github.com/SPS-L/stepss-docs/issues</text>
</svg>
