<?xml version="1.0" encoding="UTF-8" standalone="no"?>
<svg
   viewBox="0 0 295.90237 100"
   width="295.90237"
   height="100"
   version="1.1"
   id="svg26"
   sodipodi:docname="logo_dark.svg"
   inkscape:version="1.2.2 (b0a8486541, 2022-12-01)"
   xmlns:inkscape="http://www.inkscape.org/namespaces/inkscape"
   xmlns:sodipodi="http://sodipodi.sourceforge.net/DTD/sodipodi-0.dtd"
   xmlns="http://www.w3.org/2000/svg"
   xmlns:svg="http://www.w3.org/2000/svg">
  <sodipodi:namedview
     id="namedview28"
     pagecolor="#ffffff"
     bordercolor="#000000"
     borderopacity="0.25"
     inkscape:showpageshadow="2"
     inkscape:pageopacity="0.0"
     inkscape:pagecheckerboard="0"
     inkscape:deskcolor="#d1d1d1"
     showgrid="false"
     inkscape:zoom="3.1190476"
     inkscape:cx="197.33588"
     inkscape:cy="50.496184"
     inkscape:window-width="3006"
     inkscape:window-height="1659"
     inkscape:window-x="0"
     inkscape:window-y="0"
     inkscape:window-maximized="1"
     inkscape:current-layer="svg26" />
  <defs
     id="defs4">
    <style
       id="style2">
      .wc { fill:none; stroke:#4da6ff; stroke-width:3.5; stroke-linecap:round; }
      .dt { fill:#4da6ff; }
      .tm { fill:#ddeeff; font-family:&quot;DejaVu Sans&quot;,Arial,sans-serif; font-weight:700; font-size:27px; }
      .ts { fill:#7a9bb8; font-family:&quot;DejaVu Sans&quot;,Arial,sans-serif; font-weight:400; font-size:8px; letter-spacing:1.5px; }
      .tl { fill:#4da6ff; font-family:&quot;DejaVu Sans&quot;,Arial,sans-serif; font-weight:600; font-size:8px; letter-spacing:1.5px; }
      .br { fill:#4da6ff; }
    </style>
  </defs>
  <rect
     width="295.90237"
     height="100"
     rx="5.6362357"
     fill="#0a1520"
     id="rect6"
     x="0"
     y="0"
     style="stroke-width:1" />
  <path
     d="m 58,18 c 0,0 -33,0 -33,14 0,14 30,14 30,26 0,12 -35,14 -35,14"
     fill="none"
     stroke="#c8d8ec"
     stroke-width="12"
     stroke-linecap="round"
     id="path8" />
  <path
     d="m 10,48 h 18 c 1,0 1,-12 4,-12 3,0 3,22 7,22 4,0 4,-17 8,-17 4,0 4,12 8,12 4,0 4,-6 7,-6 3,0 3,1 8,1 h 8"
     class="wc"
     id="path10" />
  <circle
     cx="10"
     cy="48"
     r="3"
     class="dt"
     id="circle12" />
  <circle
     cx="78"
     cy="48"
     r="3"
     class="dt"
     id="circle14" />
  <rect
     x="96"
     y="12"
     width="3"
     height="74"
     rx="1.5"
     class="br"
     opacity="0.35"
     id="rect16" />
  <text
     x="112"
     y="55"
     class="tm"
     id="text20">STE<tspan
   style="fill:#4da6ff;fill-opacity:1"
   id="tspan1318">PSS</tspan></text>
  <text
     x="112"
     y="70"
     class="ts"
     id="text22">STATIC &amp; TRANSIENT ELECTRIC</text>
  <text
     x="112"
     y="82"
     class="tl"
     id="text24">POWER SYSTEMS SIMULATION</text>
</svg>
